<?xml version="1.0" encoding="UTF-8"?>
<svg id="Layer_2" data-name="Layer 2" xmlns="http://www.w3.org/2000/svg" viewBox="0 0 85 110" width="14" height="18">
  <defs>
    <style>
      .cls-1, .cls-2 {
        stroke-width: 0px;
      }

      .cls-2 {
        fill: #fff;
      }
    </style>
  </defs>
  <g id="Layer_1-2" data-name="Layer 1">
    <g>
      <path class="cls-1" d="M80,45v-5h-5v-5h-10v-5h-15v-5h-10V5h-5V0h-10v5h-5v45h-5v-5H0v15h5v5h5v10h5v10h5v10h5v15h50v-15h5v-15h5v-35h-5Z"/>
      <g>
        <rect class="cls-2" x="20" y="5" width="5" height="60"/>
        <rect class="cls-2" x="25" width="10" height="5"/>
        <rect class="cls-2" x="35" y="5" width="5" height="45"/>
        <rect class="cls-2" x="40" y="25" width="10" height="5"/>
        <rect class="cls-2" x="50" y="35" width="5" height="15"/>
        <rect class="cls-2" x="50" y="30" width="15" height="5"/>
        <rect class="cls-2" x="65" y="40" width="5" height="14.99"/>
        <rect class="cls-2" x="65" y="35" width="10" height="5"/>
        <rect class="cls-2" x="75" y="40" width="5" height="5"/>
        <rect class="cls-2" x="80" y="45" width="5" height="35"/>
        <rect class="cls-2" x="75" y="80" width="5" height="15"/>
        <rect class="cls-2" x="70" y="95" width="5" height="15"/>
        <rect class="cls-2" x="25" y="105" width="45" height="5"/>
        <rect class="cls-2" x="15" y="50" width="5" height="5"/>
        <rect class="cls-2" y="45" width="15" height="5"/>
        <rect class="cls-2" y="50" width="5" height="10"/>
        <rect class="cls-2" x="5" y="60" width="5" height="5"/>
        <rect class="cls-2" x="10" y="65" width="5" height="10"/>
        <rect class="cls-2" x="15" y="75" width="5" height="10"/>
        <rect class="cls-2" x="20" y="85" width="5" height="10"/>
        <rect class="cls-2" x="25" y="95" width="5" height="10"/>
      </g>
    </g>
  </g>
</svg>