<svg width="104" height="96" viewBox="0 0 104 96" fill="none" xmlns="http://www.w3.org/2000/svg">
<mask id="mask0_639_42" style="mask-type:luminance" maskUnits="userSpaceOnUse" x="0" y="0" width="104" height="96">
<path d="M94.2488 93.6215C100.055 97.9761 108.764 95.0731 100.781 87.0898C76.8308 63.8658 81.911 0 52.1554 0C22.3997 0 27.4799 63.8658 3.53018 87.0898C-5.17879 95.7988 4.25589 97.9761 10.0619 93.6215C32.5602 78.3808 31.1087 51.5282 52.1554 51.5282C73.202 51.5282 71.7506 78.3808 94.2488 93.6215Z" fill="white"/>
</mask>
<g mask="url(#mask0_639_42)">
<g filter="url(#filter0_f_639_42)">
<path d="M-4.41284 -21.6313C-6.17877 -6.07357 7.228 8.22267 25.532 10.3003C43.836 12.3779 60.1059 1.45008 61.8718 -14.1076C63.6378 -29.6653 50.231 -43.9616 31.927 -46.0392C13.623 -48.1168 -2.64691 -37.189 -4.41284 -21.6313Z" fill="#FFE432"/>
</g>
<g filter="url(#filter1_f_639_42)">
<path d="M66.1607 29.2354C70.7467 48.9803 90.8226 61.1874 111.002 56.5006C131.181 51.8138 143.821 32.008 139.235 12.2631C134.649 -7.48184 114.573 -19.6889 94.3944 -15.0021C74.2154 -10.3154 61.5748 9.49047 66.1607 29.2354Z" fill="#FC413D"/>
</g>
<g filter="url(#filter2_f_639_42)">
<path d="M-53.9132 42.4798C-48.1184 62.8571 -22.021 73.2907 4.37713 65.7838C30.7752 58.2769 47.4775 35.6723 41.6828 15.2949C35.888 -5.08245 9.79055 -15.516 -16.6076 -8.00913C-43.0057 -0.502229 -59.708 22.1024 -53.9132 42.4798Z" fill="#00B95C"/>
</g>
<g filter="url(#filter3_f_639_42)">
<path d="M-53.9132 42.4798C-48.1184 62.8571 -22.021 73.2907 4.37713 65.7838C30.7752 58.2769 47.4775 35.6723 41.6828 15.2949C35.888 -5.08245 9.79055 -15.516 -16.6076 -8.00913C-43.0057 -0.502229 -59.708 22.1024 -53.9132 42.4798Z" fill="#00B95C"/>
</g>
<g filter="url(#filter4_f_639_42)">
<path d="M-32.9658 59.3716C-18.4391 74.2091 6.57901 73.2727 22.9138 57.2802C39.2485 41.2876 40.7143 16.295 26.1876 1.45746C11.6609 -13.38 -13.3572 -12.4437 -29.6919 3.54885C-46.0267 19.5414 -47.4924 44.5341 -32.9658 59.3716Z" fill="#00B95C"/>
</g>
<g filter="url(#filter5_f_639_42)">
<path d="M43.0352 115.33C47.546 134.752 66.3641 146.975 85.0664 142.631C103.769 138.287 115.273 119.021 110.762 99.5996C106.252 80.178 87.4335 67.955 68.7311 72.2988C50.0287 76.6426 38.5243 95.9083 43.0352 115.33Z" fill="#3186FF"/>
</g>
<g filter="url(#filter6_f_639_42)">
<path d="M11.1471 -39.7987C1.70154 -18.7576 12.0357 6.376 34.229 16.3388C56.4224 26.3016 82.0708 17.3209 91.5164 -3.72016C100.962 -24.7612 90.6279 -49.8948 68.4345 -59.8576C46.2411 -69.8204 20.5927 -60.8397 11.1471 -39.7987Z" fill="#FBBC04"/>
</g>
<g filter="url(#filter7_f_639_42)">
<path d="M-14.1548 163.287C-37.0216 154.311 2.05723 80.4541 11.7747 55.7007C21.4923 30.9474 47.9072 18.158 70.774 27.1349C93.6409 36.1117 120.745 85.555 111.027 110.308C101.309 135.062 8.71214 172.264 -14.1548 163.287Z" fill="#3186FF"/>
</g>
<g filter="url(#filter8_f_639_42)">
<path d="M124.4 71.3695C118.278 78.5146 102.302 74.8711 88.7171 63.2313C75.1317 51.5915 69.0814 36.3633 75.2033 29.2181C81.3252 22.073 97.3011 25.7166 110.886 37.3563C124.471 48.9961 130.523 64.2242 124.4 71.3695Z" fill="#749BFF"/>
</g>
<g filter="url(#filter9_f_639_42)">
<path d="M78.7001 34.9979C103.879 52.0303 132.874 53.1492 143.462 37.4971C154.05 21.8449 142.221 -4.65112 117.042 -21.6835C91.8629 -38.7159 62.868 -39.8349 52.2802 -24.1827C41.6923 -8.53057 53.5209 17.9655 78.7001 34.9979Z" fill="#FC413D"/>
</g>
<g filter="url(#filter10_f_639_42)">
<path d="M-3.96399 7.29316C-10.202 22.3411 -8.16464 37.4806 0.586488 41.1083C9.33762 44.736 21.4887 35.4781 27.7266 20.4302C33.9646 5.38232 31.9273 -9.75724 23.1762 -13.3849C14.425 -17.0126 2.27398 -7.75474 -3.96399 7.29316Z" fill="#FFEE48"/>
</g>
</g>
<defs>
<filter id="filter0_f_639_42" x="-14.5391" y="-56.2628" width="86.5373" height="76.7853" filterUnits="userSpaceOnUse" color-interpolation-filters="sRGB">
<feFlood flood-opacity="0" result="BackgroundImageFix"/>
<feBlend mode="normal" in="SourceGraphic" in2="BackgroundImageFix" result="shape"/>
<feGaussianBlur stdDeviation="4.98491" result="effect1_foregroundBlur_639_42"/>
</filter>
<filter id="filter1_f_639_42" x="17.0218" y="-64.2028" width="171.352" height="169.904" filterUnits="userSpaceOnUse" color-interpolation-filters="sRGB">
<feFlood flood-opacity="0" result="BackgroundImageFix"/>
<feBlend mode="normal" in="SourceGraphic" in2="BackgroundImageFix" result="shape"/>
<feGaussianBlur stdDeviation="24.0995" result="effect1_foregroundBlur_639_42"/>
</filter>
<filter id="filter2_f_639_42" x="-96.0351" y="-51.417" width="179.84" height="160.609" filterUnits="userSpaceOnUse" color-interpolation-filters="sRGB">
<feFlood flood-opacity="0" result="BackgroundImageFix"/>
<feBlend mode="normal" in="SourceGraphic" in2="BackgroundImageFix" result="shape"/>
<feGaussianBlur stdDeviation="20.4868" result="effect1_foregroundBlur_639_42"/>
</filter>
<filter id="filter3_f_639_42" x="-96.0351" y="-51.417" width="179.84" height="160.609" filterUnits="userSpaceOnUse" color-interpolation-filters="sRGB">
<feFlood flood-opacity="0" result="BackgroundImageFix"/>
<feBlend mode="normal" in="SourceGraphic" in2="BackgroundImageFix" result="shape"/>
<feGaussianBlur stdDeviation="20.4868" result="effect1_foregroundBlur_639_42"/>
</filter>
<filter id="filter4_f_639_42" x="-83.9433" y="-50.0596" width="161.108" height="160.947" filterUnits="userSpaceOnUse" color-interpolation-filters="sRGB">
<feFlood flood-opacity="0" result="BackgroundImageFix"/>
<feBlend mode="normal" in="SourceGraphic" in2="BackgroundImageFix" result="shape"/>
<feGaussianBlur stdDeviation="20.4868" result="effect1_foregroundBlur_639_42"/>
</filter>
<filter id="filter5_f_639_42" x="3.11863" y="32.4848" width="147.56" height="149.96" filterUnits="userSpaceOnUse" color-interpolation-filters="sRGB">
<feFlood flood-opacity="0" result="BackgroundImageFix"/>
<feBlend mode="normal" in="SourceGraphic" in2="BackgroundImageFix" result="shape"/>
<feGaussianBlur stdDeviation="19.4685" result="effect1_foregroundBlur_639_42"/>
</filter>
<filter id="filter6_f_639_42" x="-27.6405" y="-99.2099" width="157.944" height="154.902" filterUnits="userSpaceOnUse" color-interpolation-filters="sRGB">
<feFlood flood-opacity="0" result="BackgroundImageFix"/>
<feBlend mode="normal" in="SourceGraphic" in2="BackgroundImageFix" result="shape"/>
<feGaussianBlur stdDeviation="17.644" result="effect1_foregroundBlur_639_42"/>
</filter>
<filter id="filter7_f_639_42" x="-52.7382" y="-7.24801" width="197.309" height="203.418" filterUnits="userSpaceOnUse" color-interpolation-filters="sRGB">
<feFlood flood-opacity="0" result="BackgroundImageFix"/>
<feBlend mode="normal" in="SourceGraphic" in2="BackgroundImageFix" result="shape"/>
<feGaussianBlur stdDeviation="15.7568" result="effect1_foregroundBlur_639_42"/>
</filter>
<filter id="filter8_f_639_42" x="44.6154" y="-2.63848" width="110.373" height="105.865" filterUnits="userSpaceOnUse" color-interpolation-filters="sRGB">
<feFlood flood-opacity="0" result="BackgroundImageFix"/>
<feBlend mode="normal" in="SourceGraphic" in2="BackgroundImageFix" result="shape"/>
<feGaussianBlur stdDeviation="14.0995" result="effect1_foregroundBlur_639_42"/>
</filter>
<filter id="filter9_f_639_42" x="24.583" y="-59.044" width="146.576" height="131.402" filterUnits="userSpaceOnUse" color-interpolation-filters="sRGB">
<feFlood flood-opacity="0" result="BackgroundImageFix"/>
<feBlend mode="normal" in="SourceGraphic" in2="BackgroundImageFix" result="shape"/>
<feGaussianBlur stdDeviation="11.9087" result="effect1_foregroundBlur_639_42"/>
</filter>
<filter id="filter10_f_639_42" x="-37.0572" y="-43.6499" width="97.877" height="115.023" filterUnits="userSpaceOnUse" color-interpolation-filters="sRGB">
<feFlood flood-opacity="0" result="BackgroundImageFix"/>
<feBlend mode="normal" in="SourceGraphic" in2="BackgroundImageFix" result="shape"/>
<feGaussianBlur stdDeviation="14.739" result="effect1_foregroundBlur_639_42"/>
</filter>
</defs>
</svg>
