<svg width="346" height="513" viewBox="0 0 346 513" fill="none" xmlns="http://www.w3.org/2000/svg">
<g clip-path="url(#clip0_639_84)">
<path d="M172.53 246.9C172.53 204.86 206.62 170.79 248.65 170.79H259.66C259.96 170.8 260.29 170.78 260.6 170.78C307.76 170.78 346 209.03 346 256.18C346 303.33 307.76 341.57 260.6 341.57C260.29 341.57 259.96 341.56 259.65 341.56L248.65 341.57C206.62 341.57 172.53 307.48 172.53 265.45V246.9Z" fill="#00B6FF"/>
<path d="M0 426.98C0 379.82 38.24 341.57 85.4 341.57L172.53 341.58V426.1C172.53 473.75 133.47 512.36 85.82 512.36C38.67 512.36 0 474.13 0 426.98Z" fill="#24CB71"/>
<path d="M172.53 0.01V170.79H259.66C259.96 170.78 260.29 170.8 260.6 170.8C307.76 170.8 346 132.55 346 85.4C346 38.24 307.76 0 260.6 0C260.29 0 259.96 0.01 259.65 0.01H172.53Z" fill="#FF7237"/>
<path d="M0 85.3898C0 132.55 38.24 170.79 85.4 170.79H172.53V0.00976562H85.39C38.24 0.00976562 0 38.2398 0 85.3898Z" fill="#FF3737"/>
<path d="M0 256.18C0 303.34 38.24 341.58 85.4 341.58H172.53V170.8H85.39C38.24 170.8 0 209.03 0 256.18Z" fill="#874FFF"/>
</g>
<defs>
<clipPath id="clip0_639_84">
<rect width="346" height="512.36" fill="white"/>
</clipPath>
</defs>
</svg>
