<svg width="512" height="499" viewBox="0 0 512 499" fill="none" xmlns="http://www.w3.org/2000/svg">
<g clip-path="url(#clip0_639_69)">
<path d="M420.88 0H90.57C40.5496 0 0 40.5496 0 90.57V408.09C0 458.11 40.5496 498.66 90.57 498.66H420.88C470.9 498.66 511.45 458.11 511.45 408.09V90.57C511.45 40.5496 470.9 0 420.88 0Z" fill="#330000"/>
<path d="M247.84 299.26H168.58L152.46 349.35C152.247 350.268 151.717 351.081 150.963 351.647C150.21 352.212 149.281 352.493 148.34 352.44H108.2C105.907 352.44 105.107 351.18 105.8 348.66L174.42 151C175.087 148.94 175.773 146.607 176.48 144C177.371 139.42 177.83 134.766 177.85 130.1C177.809 129.824 177.823 129.543 177.892 129.273C177.96 129.002 178.082 128.748 178.249 128.525C178.417 128.302 178.627 128.114 178.867 127.972C179.107 127.831 179.374 127.738 179.65 127.7C179.849 127.67 180.051 127.67 180.25 127.7H234.8C236.4 127.7 237.31 128.27 237.55 129.41L315.43 349C316.12 351.28 315.43 352.43 313.37 352.43H268.77C268.004 352.515 267.234 352.319 266.602 351.877C265.971 351.435 265.522 350.779 265.34 350.03L247.84 299.26ZM180.94 256H235.14C233.773 251.42 232.173 246.274 230.34 240.56C228.507 234.847 226.563 228.727 224.51 222.2L218.33 202.65C216.27 196.13 214.383 189.837 212.67 183.77C210.957 177.704 209.4 172.17 208 167.17H207.66C205.727 176.434 203.321 185.593 200.45 194.61C197.25 204.91 193.99 215.434 190.67 226.18C187.35 236.927 184.107 246.867 180.94 256Z" fill="#FF9A00"/>
<path d="M361.74 164.08C358.241 164.219 354.751 163.619 351.5 162.318C348.248 161.017 345.308 159.044 342.87 156.53C340.439 153.905 338.552 150.826 337.316 147.469C336.08 144.112 335.521 140.544 335.67 136.97C335.551 133.438 336.177 129.921 337.507 126.648C338.837 123.374 340.842 120.417 343.39 117.97C345.914 115.547 348.892 113.648 352.153 112.381C355.414 111.115 358.893 110.506 362.39 110.59C370.623 110.59 377.083 113.05 381.77 117.97C386.525 123.128 389.042 129.96 388.77 136.97C388.914 140.558 388.335 144.139 387.068 147.5C385.8 150.86 383.869 153.931 381.39 156.53C378.811 159.072 375.734 161.056 372.353 162.355C368.972 163.654 365.359 164.241 361.74 164.08ZM338.07 349V185C338.07 182.94 338.98 181.91 340.81 181.91H383C384.82 181.91 385.74 182.91 385.74 185V349C385.74 351.28 384.83 352.43 383 352.43H341.16C339.1 352.44 338.07 351.29 338.07 349Z" fill="#FF9A00"/>
</g>
<defs>
<clipPath id="clip0_639_69">
<rect width="511.45" height="498.66" fill="white"/>
</clipPath>
</defs>
</svg>
