<svg width="182" height="182" viewBox="0 0 182 182" fill="none" xmlns="http://www.w3.org/2000/svg">
<rect width="182" height="182" fill="#525252"/>
<rect x="8.39697" y="8.39648" width="165.206" height="165.206" fill="#343434"/>
<path d="M99.9272 59.2861H105.241V94.4023H111.958V88.7734H117.288V117.331H111.958V117.33H94.2349V124.198H105.539V129.528H76.7593V124.198H87.7661V117.33H70.0425V112.001H87.7661V106.39H76.7593V99.9395H70.0415V117.331H64.7124V88.7734H70.0415V94.4023H76.8267V59.2861H81.4839V59.2852H99.9272V59.2861ZM105.539 106.39H94.2349V112.001H111.958V99.9395H105.539V106.39ZM82.1567 99.9395H99.9116V82.2764H82.1567V99.9395ZM82.1567 76.7393H99.9116V64.8232H82.1567V76.7393Z" fill="#D9D9D9"/>
</svg>
