<svg width="512" height="499" viewBox="0 0 512 499" fill="none" xmlns="http://www.w3.org/2000/svg">
<g clip-path="url(#clip0_639_73)">
<path d="M421.14 0H90.62C40.572 0 0 40.572 0 90.62V408.35C0 458.398 40.572 498.97 90.62 498.97H421.14C471.188 498.97 511.76 458.398 511.76 408.35V90.62C511.76 40.572 471.188 0 421.14 0Z" fill="#001E36"/>
<path d="M115.24 349.91V130.53C115.24 128.94 115.92 128.13 117.3 128.13C120.95 128.13 124.3 128.13 129.3 127.96C134.3 127.79 139.77 127.73 145.61 127.62L164.15 127.27C170.67 127.156 177.134 127.1 183.54 127.1C200.934 127.1 215.6 129.273 227.54 133.62C238.274 137.258 248.064 143.239 256.2 151.13C263.099 157.973 268.429 166.233 271.82 175.34C275.028 184.207 276.65 193.57 276.61 203C276.61 221.32 272.377 236.426 263.91 248.32C255.384 260.264 243.403 269.31 229.58 274.24C215.16 279.62 199.13 281.44 181.51 281.44C176.51 281.44 172.93 281.39 170.87 281.27C168.81 281.15 165.72 281.1 161.6 281.1V349.59C161.652 349.945 161.634 350.307 161.545 350.655C161.457 351.004 161.3 351.331 161.084 351.618C160.869 351.905 160.598 352.147 160.288 352.329C159.979 352.512 159.636 352.631 159.28 352.68C159.025 352.72 158.765 352.72 158.51 352.68H117.64C116 352.65 115.24 351.74 115.24 349.91ZM161.6 169.33V240.88C164.574 241.113 167.32 241.226 169.84 241.22H181.17C189.507 241.191 197.789 239.869 205.72 237.3C212.519 235.288 218.597 231.366 223.23 226C227.69 220.74 229.92 213.406 229.92 204C230.093 197.358 228.358 190.805 224.92 185.12C221.317 179.62 216.108 175.364 210 172.93C202.039 169.838 193.537 168.379 185 168.64C179.5 168.64 174.637 168.696 170.41 168.81C166.184 168.923 163.264 169.096 161.65 169.33H161.6Z" fill="#31A8FF"/>
<path d="M409.35 227.871C402.899 224.552 396.026 222.126 388.92 220.661C381.094 218.862 373.091 217.94 365.06 217.911C360.718 217.795 356.381 218.317 352.19 219.461C349.52 220.052 347.145 221.572 345.49 223.751C344.372 225.493 343.778 227.52 343.78 229.591C343.841 231.598 344.566 233.529 345.84 235.081C347.844 237.427 350.295 239.351 353.05 240.741C357.942 243.368 362.984 245.705 368.15 247.741C379.673 251.6 390.683 256.845 400.94 263.361C407.921 267.774 413.7 273.849 417.76 281.041C421.182 287.862 422.898 295.411 422.76 303.041C422.963 313.103 420.088 322.987 414.52 331.371C408.556 339.875 400.274 346.487 390.66 350.421C380.22 355.007 367.334 357.301 352 357.301C342.265 357.391 332.546 356.469 323 354.551C315.478 353.171 308.155 350.864 301.2 347.681C300.448 347.295 299.822 346.702 299.395 345.972C298.968 345.242 298.758 344.406 298.79 343.561V306.491C298.747 306.127 298.804 305.759 298.956 305.425C299.108 305.092 299.348 304.807 299.65 304.601C299.945 304.432 300.284 304.358 300.622 304.389C300.96 304.419 301.281 304.552 301.54 304.771C309.761 309.617 318.689 313.15 328 315.241C336.202 317.299 344.615 318.393 353.07 318.501C361.07 318.501 366.964 317.471 370.75 315.411C372.455 314.63 373.897 313.372 374.901 311.789C375.906 310.206 376.43 308.365 376.41 306.491C376.41 303.511 374.694 300.647 371.26 297.901C367.827 295.154 360.84 291.854 350.3 288.001C339.521 284.25 329.301 279.052 319.92 272.551C313.211 267.89 307.684 261.726 303.78 254.551C300.397 247.787 298.682 240.312 298.78 232.751C298.751 223.642 301.25 214.703 306 206.931C311.397 198.391 319.149 191.595 328.32 187.361C338.387 182.327 350.974 179.811 366.08 179.811C374.93 179.736 383.771 180.365 392.52 181.691C398.854 182.505 405.046 184.187 410.92 186.691C411.387 186.824 411.816 187.065 412.173 187.393C412.531 187.721 412.807 188.127 412.98 188.581C413.213 189.417 413.328 190.282 413.32 191.151V225.831C413.348 226.231 413.27 226.632 413.095 226.994C412.92 227.355 412.653 227.664 412.32 227.891C411.858 228.117 411.348 228.234 410.833 228.23C410.318 228.227 409.81 228.104 409.35 227.871Z" fill="#31A8FF"/>
</g>
<defs>
<clipPath id="clip0_639_73">
<rect width="511.76" height="498.97" fill="white"/>
</clipPath>
</defs>
</svg>
