<svg width="113" height="63" viewBox="0 0 113 63" fill="none" xmlns="http://www.w3.org/2000/svg">
<path d="M74.7075 61.9995C70.8489 61.9995 67.1941 60.1388 64.9298 57.0206L64.7653 56.7973C62.8693 54.1884 62.1055 50.9958 62.6069 47.811C63.1083 44.6262 64.828 41.8253 67.4369 39.9333L92.6331 21.6276C94.7093 20.1194 97.1616 19.3203 99.7196 19.3203C103.578 19.3203 107.233 21.181 109.497 24.2992L109.662 24.5225C113.575 29.9088 112.376 37.4732 106.99 41.3866L81.7939 59.6922C79.7177 61.2004 77.2655 61.9995 74.7075 61.9995Z" fill="#F9AB00"/>
<path d="M99.7235 20.1198C103.21 20.1198 106.649 21.7337 108.855 24.7696L109.019 24.9929C112.678 30.0306 111.562 37.0818 106.524 40.7405L81.3277 59.0462C79.326 60.4995 77.0069 61.2007 74.7113 61.2007C71.2249 61.2007 67.7855 59.5868 65.5801 56.5509L65.4155 56.3276C61.7568 51.2899 62.8732 44.2387 67.9109 40.5799L93.1071 22.2743C95.1088 20.821 97.4279 20.1198 99.7235 20.1198ZM99.7235 18.5215C96.9931 18.5215 94.3802 19.3716 92.1669 20.9816L66.9707 39.2872C61.2279 43.4592 59.9509 51.5249 64.1228 57.2677L64.2834 57.491C66.7004 60.8168 70.5942 62.799 74.7074 62.799C77.4378 62.799 80.0507 61.9489 82.2639 60.3389L107.46 42.0333C110.241 40.0119 112.071 37.0269 112.608 33.6306C113.144 30.2343 112.329 26.8301 110.308 24.0488L110.147 23.8256C107.73 20.4997 103.837 18.5176 99.7235 18.5176V18.5215Z" fill="black"/>
<path d="M99.7236 43.482C97.1656 43.482 94.7134 42.6828 92.6372 41.1747L67.441 22.869C62.0546 18.9556 60.8559 11.3913 64.7693 6.00494L64.9339 5.78165C67.1981 2.66346 70.8529 0.802734 74.7115 0.802734C77.2695 0.802734 79.7218 1.60187 81.7979 3.11004L106.994 21.4157C112.38 25.3291 113.579 32.8934 109.666 38.2798L109.501 38.503C107.237 41.6212 103.582 43.482 99.7236 43.482Z" fill="#34A853"/>
<path d="M74.7077 1.60218C77.0072 1.60218 79.3262 2.30339 81.3241 3.75671L106.52 22.0624C111.558 25.7211 112.674 32.7723 109.016 37.81L108.851 38.0333C106.646 41.0692 103.206 42.6831 99.7198 42.6831C97.4203 42.6831 95.1013 41.9819 93.1034 40.5286L67.9072 22.223C62.8696 18.5642 61.7531 11.513 65.4119 6.47533L65.5764 6.25205C67.7819 3.21612 71.2213 1.60218 74.7077 1.60218ZM74.7077 0C70.5945 0 66.6968 1.98608 64.2837 5.30797L64.1231 5.53126C62.1018 8.31256 61.283 11.7167 61.8236 15.113C62.3642 18.5093 64.1897 21.4943 66.971 23.5157L92.1672 41.8213C94.3805 43.4313 96.9934 44.2814 99.7237 44.2814C103.837 44.2814 107.735 42.2992 110.148 38.9734L110.308 38.7502C114.48 33.0074 113.203 24.9416 107.46 20.7696L82.2642 2.46008C80.0509 0.850059 77.4381 0 74.7077 0Z" fill="black"/>
<path d="M13.0489 43.482C9.19035 43.482 5.53549 41.6212 3.27127 38.5031L3.10675 38.2798C-0.80666 32.8934 0.392041 25.3291 5.77836 21.4157L30.9746 3.10613C33.0508 1.59796 35.503 0.798828 38.061 0.798828C41.9196 0.798828 45.5744 2.65956 47.8387 5.77775L48.0032 6.00103C51.9166 11.3874 50.7179 18.9517 45.3316 22.8651L20.1353 41.1708C18.0592 42.6789 15.6069 43.4781 13.0489 43.4781V43.482Z" fill="#EA4335"/>
<path d="M38.065 1.60218C41.5514 1.60218 44.9908 3.21612 47.1963 6.25205L47.3608 6.47533C51.0196 11.513 49.9031 18.5642 44.8655 22.223L19.6693 40.5286C17.6675 41.9819 15.3484 42.6831 13.0529 42.6831C9.56648 42.6831 6.12707 41.0692 3.92162 38.0333L3.75709 37.81C0.0943937 32.7723 1.21083 25.7211 6.24851 22.0624L31.4447 3.75279C33.4465 2.29947 35.7655 1.59827 38.0611 1.59827M38.065 0C35.3346 0 32.7218 0.850059 30.5085 2.46008L5.30835 20.7657C2.52705 22.7871 0.697661 25.7721 0.160988 29.1684C-0.375685 32.5647 0.439118 35.9689 2.46046 38.7502L2.62498 38.9734C5.03805 42.2953 8.93579 44.2814 13.049 44.2814C15.7794 44.2814 18.3922 43.4313 20.6055 41.8213L45.8017 23.5157C51.5445 19.3437 52.8216 11.278 48.6496 5.53518L48.4851 5.31189C46.072 1.99 42.1743 0.00391741 38.0611 0.00391741L38.065 0Z" fill="black"/>
<path d="M38.073 61.9995C35.515 61.9995 33.0627 61.2004 30.9865 59.6922L5.78642 41.3866C0.400098 37.4732 -0.798603 29.9088 3.1148 24.5225L3.27933 24.2992C5.54354 21.181 9.1984 19.3203 13.057 19.3203C15.615 19.3203 18.0672 20.1194 20.1434 21.6276L45.3396 39.9333C47.9486 41.8292 49.6643 44.6262 50.1697 47.811C50.675 50.9958 49.9072 54.1884 48.0112 56.7973L47.8506 57.0206C45.5864 60.1388 41.9316 61.9995 38.073 61.9995Z" fill="#4285F4"/>
<path d="M13.0568 20.1198C15.3563 20.1198 17.6753 20.821 19.6732 22.2743L44.8694 40.5799C49.9071 44.2387 51.0235 51.2899 47.3647 56.3276L47.2002 56.5508C44.9947 59.5868 41.5553 61.2007 38.0689 61.2007C35.7694 61.2007 33.4504 60.4995 31.4526 59.0462L6.25634 40.7405C1.21866 37.0818 0.102223 30.0306 3.761 24.9929L3.92553 24.7696C6.13098 21.7337 9.57039 20.1198 13.0568 20.1198ZM13.0568 18.5215C8.94362 18.5215 5.04588 20.5076 2.63281 23.8295L2.46829 24.0527C-1.70366 29.7955 -0.426616 37.8613 5.31618 42.0333L30.5124 60.3389C32.7257 61.9489 35.3385 62.799 38.0689 62.799C42.1821 62.799 46.0798 60.8168 48.4929 57.491L48.6574 57.2677C52.8294 51.5249 51.5523 43.4592 45.8095 39.2872L20.6133 20.9816C18.4 19.3715 15.7872 18.5215 13.0568 18.5215Z" fill="black"/>
</svg>
