<svg width="15" height="11" viewBox="0 0 15 11" fill="none" xmlns="http://www.w3.org/2000/svg">
<path d="M14.5 0.5H0.5V10.5H14.5V0.5Z" stroke="black"/>
<path d="M2.5 1.5H1.5V2.5H2.5V1.5Z" fill="black"/>
<path d="M3.5 2.5H2.5V3.5H3.5V2.5Z" fill="black"/>
<path d="M4.5 3.5H3.5V4.5H4.5V3.5Z" fill="black"/>
<path d="M5.5 4.5H4.5V5.5H5.5V4.5Z" fill="black"/>
<path d="M6.5 5.5H5.5V6.5H6.5V5.5Z" fill="black"/>
<path d="M8.5 6.5H6.5V7.5H8.5V6.5Z" fill="black"/>
<path d="M9.5 5.5H8.5V6.5H9.5V5.5Z" fill="black"/>
<path d="M10.5 4.5H9.5V5.5H10.5V4.5Z" fill="black"/>
<path d="M11.5 3.5H10.5V4.5H11.5V3.5Z" fill="black"/>
<path d="M12.5 2.5H11.5V3.5H12.5V2.5Z" fill="black"/>
<path d="M13.5 1.5H12.5V2.5H13.5V1.5Z" fill="black"/>
</svg>
