<?xml version="1.0" encoding="UTF-8"?>
<svg id="Layer_2" data-name="Layer 2" xmlns="http://www.w3.org/2000/svg" viewBox="0 0 241.9 365">
  <defs>
    <style>
      .cls-1 {
        fill: #fff;
      }

      .cls-1, .cls-2 {
        stroke-width: 0px;
      }

      .cls-2 {
        fill: #9a0000;
      }
    </style>
  </defs>
  <g id="Layer_1-2" data-name="Layer 1">
    <g>
      <path class="cls-2" d="M0,315.16v-69.58c.61.04,1.22.13,1.83.13,21.82,0,43.65,0,65.47,0,.6,0,1.2-.06,1.8-.09.8-2.57,2.52-4.13,4.81-5.13.87-.38,1.79-.66,2.65-1.08.39-.2.67-.63,1-.95-.08-.13-.15-.26-.23-.39-1.27.1-2.55.26-3.82.29-1.28.03-2.6.08-3.85-.17-2.73-.55-4.23-2.84-3.88-5.59.08-.59.14-1.18.23-2.04h-2.36c-5.39,0-10.78-.05-16.16.03-1.48.02-2.53-.4-3.58-1.46-14.05-14.12-28.14-28.19-42.23-42.26-.52-.52-1.12-.97-1.68-1.44V49.93c.33-.22.71-.4.99-.67,3.6-3.44,7.18-6.89,10.76-10.34,11.05-10.63,22.12-21.24,33.16-31.88,2.39-2.31,4.71-4.69,7.06-7.04h137.93c.46.5.89,1.02,1.38,1.49,4.13,3.97,8.27,7.92,12.39,11.89,7.86,7.56,15.72,15.13,23.57,22.69,4.86,4.68,9.71,9.37,14.44,13.94v75.68h-68.3c0,.55.02.95,0,1.35-.24,4.81-4.23,7.36-8.74,5.73-1.5-.54-3.15-.72-4.75-.95-1.28-.18-2.59-.13-3.87-.3-3.63-.48-7.25-1.01-10.96-1.53.32.42.63.84.97,1.24,2.79,3.37,6.47,5.59,10.15,7.83,1.2.73,2.42,1.07,3.84,1.06,11.46-.05,22.92,0,34.37-.06,1.56,0,2.65.47,3.74,1.57,14,14.07,28.03,28.1,42.1,42.1,1.15,1.15,1.64,2.27,1.64,3.91-.05,41.67-.04,83.34-.04,125.01v2.28c-17.36,16.71-34.7,33.39-52.01,50.06H52.16c-2.55-2.46-5.04-4.88-7.55-7.29-13.99-13.48-27.97-26.97-41.97-40.44-.81-.78-1.75-1.41-2.64-2.11ZM235.89,119.48v-2.25c0-20.8-.01-41.61.03-62.41,0-1.42-.46-2.4-1.47-3.37-15.21-14.58-30.39-29.19-45.55-43.82-1.1-1.06-2.19-1.55-3.76-1.55-42.77.04-85.54.04-128.3,0-1.48,0-2.57.39-3.62,1.41-3.69,3.63-7.45,7.21-11.18,10.8-8.36,8.03-16.72,16.06-25.07,24.09-3.63,3.49-7.25,7-10.86,10.47v1.12c0,42.36,0,84.72-.02,127.08,0,1.2.41,2.01,1.24,2.84,13.09,13.05,26.17,26.12,39.21,39.21.94.94,1.87,1.36,3.21,1.35,7.57-.06,15.14-.03,22.71-.02.58,0,1.16.05,2.18.11-2.9,2.72-4.19,5.83-5.05,9.64,1.49.06,2.61.18,3.72.12,5.67-.31,11-1.78,15.93-4.65,1.59-.93,3.31-.75,4.88.14,1.68.96,2.1,2.45,1.19,4.17-.41.78-.89,1.54-1.44,2.23-3.08,3.79-7.17,5.7-11.91,6.53-2.33.41-4.65,1-6.9,1.76-1.49.51-2.2,1.71-1.85,2.81.27.85.92,1.61,1.54,2.3.63.7,1.42,1.25,2.14,1.87l-.23.45H6.16c0,.87,0,1.54,0,2.21-.02,18.69-.02,37.38-.08,56.07,0,1.43.44,2.4,1.45,3.37,9.31,8.9,18.59,17.85,27.87,26.79,5.89,5.68,11.78,11.36,17.64,17.06,1.07,1.04,2.18,1.56,3.76,1.56,42.84-.05,85.67-.05,128.51,0,1.41,0,2.43-.39,3.43-1.35,6.46-6.27,12.96-12.49,19.45-18.73,8.7-8.37,17.38-16.75,26.1-25.09,1.1-1.05,1.64-2.11,1.63-3.71-.05-39.97-.05-79.94,0-119.91,0-1.48-.42-2.53-1.47-3.57-13.01-12.94-25.98-25.91-38.92-38.92-1.06-1.06-2.11-1.47-3.59-1.47-9.96.06-19.92.04-29.88.01-.8,0-1.73.01-2.36-.37-4.35-2.68-8.75-5.3-12.9-8.26-3.24-2.31-5.72-5.46-7.71-8.92-.96-1.66-1.58-3.47-.45-5.49.52.09,1.03.05,1.42.25,6.23,3.19,12.99,3.92,19.82,4.3,2.18.12,4.32.33,6.37,1.25,1.79.81,3.36-.44,3.01-2.39-.16-.9-.64-1.8-1.16-2.57-1.01-1.49-2.16-2.88-3.43-4.54h71.23Z"/>
      <path class="cls-1" d="M235.89,119.48h-71.23c1.26,1.66,2.41,3.06,3.43,4.54.52.77,1,1.67,1.16,2.57.35,1.94-1.21,3.19-3.01,2.39-2.05-.92-4.19-1.13-6.37-1.25-6.83-.38-13.59-1.11-19.82-4.3-.39-.2-.89-.16-1.42-.25-1.13,2.02-.51,3.83.45,5.49,2,3.45,4.48,6.61,7.71,8.92,4.15,2.96,8.55,5.58,12.9,8.26.63.39,1.57.37,2.36.37,9.96.02,19.92.04,29.88-.01,1.48,0,2.53.4,3.59,1.47,12.94,13.01,25.91,25.98,38.92,38.92,1.05,1.05,1.47,2.09,1.47,3.57-.04,39.97-.04,79.94,0,119.91,0,1.6-.53,2.66-1.63,3.71-8.72,8.34-17.41,16.72-26.1,25.09-6.49,6.24-12.99,12.46-19.45,18.73-1,.97-2.02,1.36-3.43,1.35-42.84-.04-85.67-.04-128.51,0-1.59,0-2.69-.52-3.76-1.56-5.86-5.71-11.75-11.39-17.64-17.06-9.28-8.94-18.56-17.88-27.87-26.79-1.01-.97-1.45-1.94-1.45-3.37.06-18.69.07-37.38.08-56.07,0-.67,0-1.33,0-2.21h70.51l.23-.45c-.72-.62-1.51-1.17-2.14-1.87-.61-.68-1.26-1.45-1.54-2.3-.36-1.1.35-2.3,1.85-2.81,2.24-.76,4.56-1.35,6.9-1.76,4.73-.84,8.83-2.74,11.91-6.53.55-.68,1.03-1.45,1.44-2.23.9-1.72.49-3.21-1.19-4.17-1.58-.9-3.29-1.07-4.88-.14-4.94,2.87-10.26,4.34-15.93,4.65-1.11.06-2.23-.07-3.72-.12.87-3.81,2.15-6.92,5.05-9.64-1.03-.05-1.6-.11-2.18-.11-7.57,0-15.14-.03-22.71.02-1.34.01-2.28-.41-3.21-1.35-13.04-13.1-26.12-26.17-39.21-39.21-.83-.83-1.24-1.63-1.24-2.84.03-42.36.02-84.72.02-127.08v-1.12c3.6-3.48,7.23-6.98,10.86-10.47,8.35-8.03,16.72-16.06,25.07-24.09,3.74-3.59,7.49-7.16,11.18-10.8,1.04-1.03,2.13-1.42,3.62-1.41,42.77.04,85.54.04,128.3,0,1.57,0,2.66.49,3.76,1.55,15.16,14.63,30.34,29.24,45.55,43.82,1.01.97,1.47,1.95,1.47,3.37-.04,20.8-.03,41.61-.03,62.41v2.25ZM95.76,205.3c-1.98,0-3.73.11-5.46-.03-1.48-.13-2.94-.56-4.41-.85-3.13-.61-6.21-.8-9.18.76-.61.32-1.4.29-2.02.41-.79-1.17-.26-2.04.13-2.89,2.2-4.84,6.12-7.97,10.67-10.33,5.04-2.62,9.76-5.71,14.33-9.05,1.81-1.32,3.22-3,4.12-5,.57-1.26.86-2.73.9-4.12.06-2.04-1.34-2.79-3.13-1.87-.3.15-.6.33-.87.53-5.87,4.27-12.35,4.45-19.1,2.82-.23-1.27-.25-1.49.51-2.35,1.58-1.79,3.19-3.56,5.41-4.6,1.79-.84,3.61-1.62,5.35-2.55,1.79-.96,3.63-1.92,5.23-3.16,2.27-1.76,3.72-4.14,4.27-7.01.17-.88.33-1.78-.98-2.48-.79.39-1.86.71-2.68,1.34-3.42,2.65-7.38,3.42-11.55,3.39-5.29-.03-9.75,1.6-13.01,6-.67.9-1.48,1.82-2.84,1.84-1.28-.99-1.16-2.42-1-3.74.36-2.91.81-5.8,1.34-8.68,1.32-7.13,5.05-12.51,11.55-15.97,3.12-1.66,6.08-3.65,9.07-5.55,3.15-2,5.69-4.67,7.9-7.64.92-1.24,1.69-2.67,2.18-4.13.63-1.9.64-3.87-1.07-5.75-.8.57-1.55,1.09-2.29,1.63-1.15.84-2.18,2.03-3.47,2.46-3.95,1.31-7.98,2.37-12.23,1.67-2.56-.42-5.03-.16-7.37,1.03-.24.12-.49.24-.75.33-1.78.61-3.22-.47-2.95-2.36.12-.84.49-1.73,1-2.41.76-1.03,1.67-1.98,2.63-2.84,4.84-4.36,10.29-7.86,15.92-11.08,4.31-2.47,8.81-4.62,13.12-7.09,1.43-.82,2.73-2.07,3.75-3.39,1.55-1.99.59-4.16-1.92-4.46-1.1-.13-2.27.2-3.38.44-1.32.29-2.6.95-3.92,1.04-2.31.16-4.63.05-6.95-.05-.76-.03-1.5-.4-2.62-.73.59-1.02.9-1.84,1.45-2.45,1.56-1.75,3.42-3.12,5.58-4.06,2.18-.96,4.37-1.91,6.53-2.91,1.92-.89,3.14-2.38,3.48-4.49.37-2.27-.66-3.37-2.92-3.19-1.02.08-2.04.27-3.05.25-.91-.01-1.82-.23-3.01-.39.27-1,.31-1.78.66-2.35.57-.91,1.29-1.76,2.07-2.51,2.88-2.79,6.14-4.96,10.05-6.05,1.25-.35,2.48-.8,2.81-2.41-.78-1.01-1.91-1.24-3.06-1.36-1.42-.15-2.87-.16-4.27-.42-.66-.12-1.58-.59-1.75-1.1-.16-.49.36-1.43.86-1.85,1.4-1.18,2.98-2.16,4.42-3.3,1.86-1.48,3.75-2.95,5.45-4.6,1.21-1.17,1.05-1.98-.23-3.1-.92-.81-1.94-1.51-2.86-2.32-.65-.57-1.4-1.14-1.14-2.46.52-.14,1.14-.45,1.77-.45,1.73-.01,2.86-.9,3.52-2.36.61-1.36,1.12-2.78,1.51-4.22.62-2.23,1.08-4.51,1.65-6.75.19-.74.22-1.68,1.5-1.77.17.73.35,1.45.52,2.17.54,2.32.98,4.67,1.63,6.96.63,2.21,1.72,4.02,4.47,3.99.57,0,1.14.46,1.7.71-.4,1.83-1.8,2.48-2.77,3.49-1.68,1.74-1.33,3.64.93,4.48.94.35,1.98.44,2.99.61,1.93.32,2.36,1.25,1.11,2.76-.77.93-1.76,1.7-2.7,2.48-1.76,1.46-1.97,2.34-.52,4.1,1.03,1.25,2.3,2.32,3.54,3.37,1.2,1.01,2.58,1.8,3.75,2.83,2.58,2.28,2.4,3.58-.59,5.15-.3.16-.6.32-.88.52-.76.54-1.7.95-1.66,2.39.53.3,1.15.66,1.78,1.01,3.37,1.88,6.44,4.13,8.62,7.37,1.09,1.62.58,2.6-1.37,2.68-1.35.06-2.73-.07-4.07-.25-2.49-.34-3.03,1.13-2.85,2.84.09.85.39,1.72.78,2.49.68,1.33,1.91,2.08,3.25,2.68,2.93,1.3,5.92,2.47,8.73,3.98,1.83.98,3.57,2.29,5,3.78,1.5,1.56.85,3.37-1.25,3.86-1.36.31-2.83.26-4.24.19-2.1-.11-4.19-.55-6.29-.56-1.8,0-3.62.37-5.08,1.54.03,1.43.76,2.24,1.73,2.77,1.43.78,2.88,1.6,4.43,2.06,5.18,1.54,9.75,4.2,14.04,7.39,1.06.79,2.11,1.08,3.39,1.07,6.89-.04,13.78,0,20.67-.02,15.82-.02,31.65-.06,47.47-.09.66,0,1.33-.06,2.2-.09,0-.94,0-1.74,0-2.54,0-17.39-.03-34.79.05-52.18,0-1.82-.59-3.03-1.86-4.23-7.12-6.76-14.17-13.6-21.25-20.4-6.78-6.52-13.6-13-20.33-19.58-1.09-1.06-2.15-1.41-3.61-1.41-41,.03-81.99.02-122.99.02-.27,0-.55.03-.82,0-.96-.11-1.64.31-2.33.97-14.14,13.63-28.29,27.24-42.47,40.82-.92.88-1.32,1.73-1.32,3,.03,40.25.03,80.49,0,120.74,0,1.27.39,2.15,1.28,3.04,11.87,11.86,23.72,23.74,35.53,35.66,1,1.01,2.01,1.37,3.41,1.36,9.48-.05,18.97-.14,28.44.03,3.58.06,6.79-.75,10.06-2.07,4.73-1.91,5.03-6.03,4.67-10.6-.01-.16-.25-.3-.18-.22ZM172.03,241.43c-1.43.06-2.49.19-3.54.14-5.66-.3-11.02-1.68-15.95-4.57-1.82-1.07-3.68-.86-5.39.33-1.35.94-1.74,2.33-.92,3.72.76,1.28,1.6,2.56,2.62,3.62,3.1,3.22,7.03,4.77,11.41,5.42,2.01.3,4.04.74,5.92,1.49,2.64,1.05,3.32,3.18,2.01,5.67-.53,1.01-1.28,1.93-2.04,2.79-1.9,2.13-1.99,4.06-.07,6.15.63.69,1.47,1.2,2.26,1.71,1.54,1.01,3.16,1.89,4.65,2.96,2.3,1.64,4.42,3.58,5.42,6.26,1.61,4.34,3.01,8.75,4.33,13.19.4,1.33.35,2.84.26,4.26-.1,1.59-1.14,2.32-2.69,1.91-1.23-.33-2.46-.84-3.56-1.49-2.57-1.54-5-3.32-7.59-4.83-3.23-1.89-6.48-3.76-9.86-5.34-2.86-1.34-5.97-1.76-9.18-1.32-1.75.24-3.54.19-5.31.29-3.56.2-6.71-.83-9.51-3.05-.94-.75-1.96-1.78-3.25-1.23-1.47.62-1.18,2.15-1.18,3.42-.02,8.32-.02,16.64,0,24.96,0,3-.08,6.01.15,9,.7,8.92,4.34,16.09,12.57,20.42,3.48,1.83,6.41,4.36,8.96,7.35.74.87,1.61,1.7,2.57,2.31,4.97,3.17,10.38,5.17,16.29,5.45,3.95.19,7.91.06,11.86.14,1.07.02,1.77-.41,2.49-1.11,4.69-4.56,9.42-9.09,14.13-13.63,9.44-9.07,18.86-18.15,28.33-27.2.91-.87,1.29-1.76,1.29-3.03-.03-38.33-.03-76.66,0-114.99,0-1.27-.4-2.15-1.29-3.03-11.95-11.87-23.88-23.77-35.78-35.69-.84-.84-1.67-1.2-2.86-1.19-6.96.05-13.91.02-20.87.03-.53,0-1.06.05-1.74.08.22.54.37.99.57,1.4,1.88,3.85,2.68,8,3.2,12.2.28,2.28-.9,3.41-3.15,2.95-1.44-.3-2.81-.97-4.19-1.53-1.07-.43-2.07-1.03-3.15-1.43-4.92-1.8-9.85-3.56-14.78-5.33-.83-.3-1.65-.67-2.5-.88-1.38-.33-2.54.19-3.52,1.16-.97.96-.58,2.02-.17,3.04,1.31,3.26,3.34,5.94,6.49,7.63,1.5.8,3.03,1.56,4.58,2.25,3.76,1.67,7.31,3.68,10.31,6.53.73.69,1.44,1.48,1.93,2.35.91,1.63.05,2.82-1.82,2.7-.27-.02-.56-.04-.8-.15-2.31-1.08-4.66-.79-7.01-.23-3.38.81-6.62.42-9.77-1.03-1.3-.59-2.64-1.09-4-1.53-.59-.19-1.27-.13-1.87-.18-.53,1.24-.08,2.1.37,2.94,1.17,2.2,2.78,4.01,4.82,5.47,4.56,3.25,9.22,6.3,14.23,8.82,7.79,3.92,11.76,10.66,13.61,18.88.16.71-.03,1.5-.08,2.7-1.48-.6-2.7-.81-3.52-1.49-2.15-1.79-4.56-2.33-7.24-2.16-4.41.28-8.17-1.12-11.23-4.36-.4-.42-1.06-.6-1.59-.89-2.05,3.4-.95,8.13,2.16,9.94.94.54,1.98.9,2.97,1.34,3.6,1.63,7.24,3.18,10.77,4.93,1.57.78,3.06,1.82,4.38,2.97,2.76,2.4,4.21,5.57,5.06,9.63ZM12.75,258.4c-.03.69-.08,1.29-.08,1.89-.03,15.55-.03,31.1-.14,46.65-.01,1.83.61,3.04,1.88,4.23,5.07,4.76,10.07,9.59,15.08,14.41,8.94,8.6,17.89,17.2,26.8,25.83.74.72,1.47,1.06,2.51,1.04,4.16-.05,8.32.02,12.48-.03,5.39-.07,10.12-1.91,14.17-5.49,2.9-2.56,5.13-5.65,7.08-8.95,2.21-3.73,4.91-7.03,8.12-9.93,1.52-1.37,2.97-2.82,4.55-4.12,2.21-1.82,3.39-4.19,4.14-6.88,1.06-3.85,1.37-7.8,1.41-11.74.13-12.55.11-25.1.13-37.64,0-.64-.16-1.28-.24-1.88-1.37-.38-2.25.24-3.03.84-1.23.96-2.42,2-3.51,3.12-1.76,1.81-3.81,3.13-6.23,3.75-1.97.51-3.99.87-6.01,1.14-2.43.33-4.99.11-7.29.8-7.86,2.36-15.01,6.08-20.8,12.07-.78.81-1.59,1.54-2.84,1.15-1.2-.37-1.59-1.41-1.89-2.48-.11-.39-.11-.81-.13-1.22-.16-3.96,3.56-14.94,6.09-17.98,2.68-3.22,6.14-5.35,9.86-7.12.76-.36,1.5-.79,2.24-1.18l-.14-.29H12.75Z"/>
      <path class="cls-2" d="M95.76,205.3c-.07-.08.17.06.18.22.36,4.57.06,8.69-4.67,10.6-3.27,1.32-6.48,2.13-10.06,2.07-9.48-.17-18.96-.08-28.44-.03-1.4,0-2.4-.35-3.41-1.36-11.81-11.92-23.66-23.8-35.53-35.66-.89-.89-1.28-1.77-1.28-3.04.03-40.25.03-80.49,0-120.74,0-1.27.4-2.12,1.32-3,14.19-13.58,28.34-27.19,42.47-40.82.69-.67,1.37-1.08,2.33-.97.27.03.55,0,.82,0,41,0,81.99,0,122.99-.02,1.45,0,2.52.35,3.61,1.41,6.73,6.58,13.55,13.06,20.33,19.58,7.08,6.8,14.13,13.64,21.25,20.4,1.27,1.2,1.87,2.41,1.86,4.23-.08,17.39-.05,34.79-.05,52.18,0,.8,0,1.6,0,2.54-.88.04-1.54.09-2.2.09-15.82.03-31.65.07-47.47.09-6.89.01-13.78-.02-20.67.02-1.28,0-2.33-.29-3.39-1.07-4.29-3.19-8.86-5.85-14.04-7.39-1.55-.46-3-1.29-4.43-2.06-.97-.53-1.7-1.35-1.73-2.77,1.46-1.17,3.27-1.54,5.08-1.54,2.1,0,4.19.44,6.29.56,1.41.08,2.88.12,4.24-.19,2.11-.48,2.75-2.3,1.25-3.86-1.44-1.49-3.18-2.8-5-3.78-2.81-1.51-5.81-2.68-8.73-3.98-1.34-.59-2.57-1.34-3.25-2.68-.39-.77-.69-1.64-.78-2.49-.18-1.71.36-3.17,2.85-2.84,1.35.18,2.72.31,4.07.25,1.96-.09,2.47-1.06,1.37-2.68-2.18-3.24-5.25-5.49-8.62-7.37-.63-.35-1.25-.71-1.78-1.01-.03-1.43.9-1.85,1.66-2.39.28-.2.58-.36.88-.52,2.99-1.56,3.17-2.87.59-5.15-1.17-1.03-2.55-1.82-3.75-2.83-1.25-1.05-2.51-2.12-3.54-3.37-1.46-1.76-1.24-2.64.52-4.1.94-.78,1.93-1.54,2.7-2.48,1.25-1.51.82-2.45-1.11-2.76-1-.17-2.05-.26-2.99-.61-2.25-.84-2.6-2.74-.93-4.48.97-1.01,2.37-1.66,2.77-3.49-.56-.24-1.13-.71-1.7-.71-2.75.03-3.85-1.78-4.47-3.99-.65-2.29-1.1-4.64-1.63-6.96-.17-.72-.34-1.44-.52-2.17-1.28.09-1.31,1.03-1.5,1.77-.57,2.25-1.03,4.52-1.65,6.75-.4,1.44-.9,2.86-1.51,4.22-.66,1.46-1.79,2.35-3.52,2.36-.62,0-1.24.31-1.77.45-.27,1.32.48,1.89,1.14,2.46.92.81,1.94,1.51,2.86,2.32,1.28,1.12,1.44,1.93.23,3.1-1.71,1.65-3.59,3.12-5.45,4.6-1.44,1.14-3.02,2.11-4.42,3.3-.5.42-1.01,1.36-.86,1.85.16.51,1.09.98,1.75,1.1,1.4.26,2.84.27,4.27.42,1.15.12,2.28.35,3.06,1.36-.34,1.61-1.57,2.06-2.81,2.41-3.92,1.09-7.18,3.26-10.05,6.05-.78.75-1.5,1.6-2.07,2.51-.36.57-.4,1.35-.66,2.35,1.19.17,2.1.38,3.01.39,1.02.01,2.04-.17,3.05-.25,2.26-.17,3.29.93,2.92,3.19-.34,2.11-1.56,3.6-3.48,4.49-2.16,1-4.35,1.95-6.53,2.91-2.16.95-4.02,2.32-5.58,4.06-.55.61-.86,1.43-1.45,2.45,1.13.32,1.87.69,2.62.73,2.31.1,4.64.21,6.95.05,1.32-.09,2.6-.74,3.92-1.04,1.11-.25,2.29-.58,3.38-.44,2.51.3,3.46,2.47,1.92,4.46-1.02,1.31-2.31,2.56-3.75,3.39-4.31,2.47-8.81,4.62-13.12,7.09-5.63,3.22-11.08,6.72-15.92,11.08-.96.86-1.87,1.81-2.63,2.84-.5.69-.88,1.57-1,2.41-.27,1.88,1.17,2.97,2.95,2.36.26-.09.51-.2.75-.33,2.34-1.19,4.81-1.45,7.37-1.03,4.25.69,8.28-.36,12.23-1.67,1.29-.43,2.32-1.62,3.47-2.46.74-.54,1.49-1.06,2.29-1.63,1.71,1.88,1.7,3.85,1.07,5.75-.48,1.46-1.25,2.89-2.18,4.13-2.21,2.96-4.75,5.64-7.9,7.64-2.99,1.9-5.95,3.88-9.07,5.55-6.5,3.46-10.22,8.84-11.55,15.97-.53,2.88-.98,5.78-1.34,8.68-.16,1.32-.28,2.75,1,3.74,1.36-.02,2.17-.94,2.84-1.84,3.25-4.39,7.71-6.03,13.01-6,4.17.03,8.12-.74,11.55-3.39.82-.64,1.89-.96,2.68-1.34,1.31.7,1.14,1.61.98,2.48-.55,2.87-2.01,5.25-4.27,7.01-1.6,1.24-3.43,2.2-5.23,3.16-1.74.93-3.56,1.71-5.35,2.55-2.23,1.04-3.83,2.82-5.41,4.6-.76.86-.74,1.07-.51,2.35,6.75,1.63,13.23,1.46,19.1-2.82.27-.2.57-.38.87-.53,1.79-.92,3.2-.17,3.13,1.87-.04,1.39-.34,2.86-.9,4.12-.9,2-2.31,3.68-4.12,5-4.57,3.34-9.29,6.43-14.33,9.05-4.55,2.36-8.47,5.49-10.67,10.33-.39.85-.92,1.72-.13,2.89.62-.12,1.41-.09,2.02-.41,2.97-1.57,6.05-1.37,9.18-.76,1.47.29,2.93.72,4.41.85,1.73.15,3.48.03,5.46.03Z"/>
      <path class="cls-2" d="M172.03,241.43c-.85-4.06-2.3-7.23-5.06-9.63-1.32-1.15-2.81-2.2-4.38-2.97-3.54-1.75-7.18-3.3-10.77-4.93-.99-.45-2.04-.8-2.97-1.34-3.11-1.81-4.21-6.53-2.16-9.94.53.28,1.19.46,1.59.89,3.06,3.24,6.82,4.64,11.23,4.36,2.68-.17,5.1.37,7.24,2.16.82.68,2.04.89,3.52,1.49.05-1.21.24-2,.08-2.7-1.85-8.22-5.82-14.96-13.61-18.88-5.01-2.52-9.68-5.57-14.23-8.82-2.04-1.46-3.65-3.27-4.82-5.47-.45-.84-.9-1.7-.37-2.94.6.05,1.28-.02,1.87.18,1.36.44,2.7.94,4,1.53,3.15,1.44,6.39,1.83,9.77,1.03,2.35-.56,4.7-.85,7.01.23.24.11.53.13.8.15,1.88.12,2.73-1.08,1.82-2.7-.49-.87-1.19-1.66-1.93-2.35-3.01-2.85-6.55-4.86-10.31-6.53-1.55-.69-3.08-1.45-4.58-2.25-3.15-1.69-5.18-4.36-6.49-7.63-.41-1.02-.8-2.08.17-3.04.98-.97,2.14-1.5,3.52-1.16.86.21,1.67.58,2.5.88,4.93,1.77,9.86,3.53,14.78,5.33,1.08.4,2.09,1,3.15,1.43,1.38.56,2.75,1.23,4.19,1.53,2.25.46,3.43-.66,3.15-2.95-.51-4.2-1.32-8.35-3.2-12.2-.2-.41-.35-.86-.57-1.4.67-.03,1.2-.08,1.74-.08,6.96,0,13.91.02,20.87-.03,1.19,0,2.02.35,2.86,1.19,11.9,11.92,23.83,23.82,35.78,35.69.89.88,1.29,1.76,1.29,3.03-.03,38.33-.03,76.66,0,114.99,0,1.27-.38,2.16-1.29,3.03-9.46,9.05-18.89,18.12-28.33,27.2-4.72,4.54-9.44,9.06-14.13,13.63-.72.7-1.42,1.14-2.49,1.11-3.95-.08-7.92.05-11.86-.14-5.91-.28-11.32-2.29-16.29-5.45-.96-.61-1.83-1.44-2.57-2.31-2.56-2.99-5.49-5.51-8.96-7.35-8.23-4.34-11.87-11.51-12.57-20.42-.24-2.98-.15-6-.15-9-.02-8.32-.01-16.64,0-24.96,0-1.27-.29-2.8,1.18-3.42,1.29-.54,2.31.49,3.25,1.23,2.79,2.22,5.95,3.25,9.51,3.05,1.77-.1,3.56-.05,5.31-.29,3.21-.44,6.32-.03,9.18,1.32,3.38,1.59,6.64,3.46,9.86,5.34,2.59,1.51,5.02,3.28,7.59,4.83,1.09.66,2.32,1.16,3.56,1.49,1.55.42,2.59-.31,2.69-1.91.09-1.41.14-2.93-.26-4.26-1.32-4.43-2.72-8.85-4.33-13.19-1-2.68-3.12-4.62-5.42-6.26-1.49-1.07-3.12-1.95-4.65-2.96-.79-.52-1.63-1.03-2.26-1.71-1.92-2.09-1.83-4.02.07-6.15.76-.86,1.51-1.78,2.04-2.79,1.31-2.49.64-4.62-2.01-5.67-1.87-.75-3.91-1.19-5.92-1.49-4.38-.65-8.31-2.2-11.41-5.42-1.03-1.06-1.87-2.34-2.62-3.62-.82-1.39-.43-2.78.92-3.72,1.71-1.19,3.56-1.4,5.39-.33,4.93,2.9,10.29,4.28,15.95,4.57,1.05.06,2.11-.08,3.54-.14Z"/>
      <path class="cls-2" d="M12.75,258.4h64.22l.14.29c-.75.4-1.48.82-2.24,1.18-3.72,1.78-7.19,3.91-9.86,7.12-2.53,3.04-6.24,14.02-6.09,17.98.02.41.02.83.13,1.22.3,1.06.69,2.1,1.89,2.48,1.25.39,2.06-.34,2.84-1.15,5.79-5.99,12.94-9.71,20.8-12.07,2.3-.69,4.86-.47,7.29-.8,2.02-.27,4.04-.63,6.01-1.14,2.42-.62,4.47-1.94,6.23-3.75,1.09-1.12,2.28-2.16,3.51-3.12.78-.61,1.66-1.22,3.03-.84.08.6.24,1.24.24,1.88-.02,12.55,0,25.1-.13,37.64-.04,3.94-.35,7.89-1.41,11.74-.74,2.69-1.92,5.06-4.14,6.88-1.58,1.3-3.03,2.74-4.55,4.12-3.21,2.9-5.91,6.2-8.12,9.93-1.95,3.29-4.18,6.39-7.08,8.95-4.05,3.58-8.78,5.42-14.17,5.49-4.16.05-8.32-.02-12.48.03-1.04.01-1.77-.32-2.51-1.04-8.91-8.63-17.86-17.23-26.8-25.83-5.01-4.82-10.01-9.65-15.08-14.41-1.27-1.19-1.89-2.4-1.88-4.23.11-15.55.1-31.1.14-46.65,0-.6.05-1.2.08-1.89Z"/>
    </g>
  </g>
</svg>