<?xml version="1.0" encoding="UTF-8"?>
<svg id="Layer_2" data-name="Layer 2" xmlns="http://www.w3.org/2000/svg" viewBox="0 0 501.24 317.46">
  <defs>
    <style>
      .cls-1 {
        fill: #befa4f;
      }

      .cls-1, .cls-2, .cls-3, .cls-4 {
        stroke-width: 0px;
      }

      .cls-2 {
        fill: #ff7c00;
      }

      .cls-3 {
        fill: #333;
      }

      .cls-4 {
        fill: #f1f1f1;
      }
    </style>
  </defs>
  <g id="Layer_1-2" data-name="Layer 1">
    <g>
      <path class="cls-4" d="M451.75,153.32l-5.12-4.01-.03.03c.12.06.24.14.36.24,1.59,1.25,3.2,2.49,4.8,3.73Z"/>
      <path class="cls-2" d="M263.42,130.25c.15.16.32.32.48.49-.14-.24-.31-.42-.48-.49Z"/>
      <g>
        <g>
          <path class="cls-1" d="M215.75,98.49c-3.88.41-7.76.78-11.64,1.19-5.1.54-10.19,1.09-15.29,1.63-3.43.36-6.86.73-10.3,1.07-2.79.28-5.57.53-8.36.76-.93.08-1.59-.11-1.74-1.31-.46-3.93-1.09-7.83-1.55-11.76-.06-.52.44-1.53.84-1.62,1.75-.41,3.55-.62,5.35-.79,4.15-.38,8.31-.66,12.45-1.05,4.64-.44,9.27-1.01,13.92-1.43,3.69-.33,7.39-.5,11.09-.79,1.01-.08,1.93-.36,1.75-1.76-.57-4.43-1.08-8.87-1.67-13.3-.51-3.91-1.09-7.81-1.62-11.71-.28-2.04-.54-4.08-.83-6.27-15.29,1.41-30.4,2.79-45.65,4.19-.56-3.8-1.15-7.23-1.49-10.68-.06-.58.84-1.68,1.47-1.83,1.66-.4,3.41-.44,5.13-.58,2.62-.21,5.25-.37,7.88-.58,1.65-.13,3.3-.33,4.94-.47,2.86-.24,5.73-.46,8.59-.7,1.53-.13,3.05-.32,4.57-.42,2.4-.15,4.82-.2,7.22-.38,4.23-.32,8.44-.73,12.67-1.06,2-.16,2.58-.89,2.18-2.87-.13-.63-.09-1.3-.18-1.94-1.37-9.28-2.75-18.57-4.2-28.35-28.72,2.88-57.39,5.75-86.37,8.66,4.32,41.27,8.65,82.56,13.02,124.27,2.93-.35,5.49-.72,8.07-.96,3.87-.36,7.75-.67,11.62-.95,4.48-.33,8.95-.59,13.43-.9,1.66-.11,3.32-.17,4.96-.39,2.01-.28,3.99-.83,6-1.04,4.52-.47,9.06-.77,13.59-1.18,6.03-.54,12.05-1.13,18.08-1.68,3.54-.32,7.09-.61,10.87-.94-.77-11.21-1.51-21.95-2.26-32.87-2.38.29-4.48.56-6.59.78Z"/>
          <path class="cls-1" d="M117.24,35.6c-1.43-9.5-2.91-18.99-4.26-28.5-.22-1.53.03-3.13.16-4.69.1-1.17-1.09-2.52-2.26-2.41-16.16,1.53-32.33,3.07-48.49,4.6-14.93,1.41-29.85,2.81-44.78,4.21-5.79.54-11.58,1.09-17.6,1.66,1.99,14.16,3.96,28.14,5.91,42.01,11.4-1.06,22.69-2.12,34.04-3.18.53,9.32,1.06,18.64,1.6,27.96.01,0,.03,0,.04,0,1.63,21.96,3.23,43.62,4.85,65.56,4.52-.51,8.77-.99,13.03-1.48,5.56-.64,11.12-1.29,16.69-1.92,3.48-.4,6.97-.75,10.46-1.16,1.1-.13,1.72-.68,1.53-1.95-.21-1.42-.27-2.86-.36-4.29-.36-5.34-.65-10.69-1.06-16.02-.54-7-1.23-13.99-1.76-20.99-.45-5.92-.73-11.85-1.17-17.76-.65-8.71-1.37-17.41-2.05-26.11-.14-1.86-.21-3.73-.32-5.8,6.45-.61,12.79-1.22,19.12-1.79,5.52-.49,11.04-.91,16.56-1.45.35-.03.92-.88.88-1.31-.14-1.74-.49-3.46-.75-5.19Z"/>
          <path class="cls-1" d="M475.58,128.19c-.54-6.81-1.2-13.61-1.75-20.42-.44-5.53-.74-11.07-1.17-16.59-.66-8.52-1.39-17.02-2.04-25.54-.43-5.59-.75-11.18-1.16-16.77-.55-7.48-1.14-14.97-1.74-22.45-.3-3.76-.73-7.52-1.01-11.28-.31-4.18-.52-8.36-.79-12.82-13.95,1.27-28.05,2.54-42.32,3.84,1.17,15.15,2.32,30.06,3.46,44.82h-22.31s0,.02,0,.03c-1.12,0-2.16.12-3.15-.03h-.11c-.05-.02-.1-.02-.15-.03-.55-.12-1.34-.87-1.38-1.39-.55-7.1-.97-14.2-1.45-21.3-.33-4.8-.75-9.6-1.05-14.41-.08-1.29-.15-2.66.2-3.87.5-1.71-.06-2.61-1.86-2.49-9.8.7-19.6,1.38-29.4,2.08-3.77.27-7.54.56-11.56.86.17,2.43.33,4.63.48,6.84.67,9.74,1.28,19.48,2.03,29.21.4,5.14,1.03,10.26,1.55,15.39.18,1.74.24,2.45-.3,2.97l1.04,15.33s.03-.01.05-.02c.46,6.46.91,12.69,1.35,18.89h.01s.05.84.05.84c.05.63.09,1.26.14,1.89,0,0-.02,0-.02,0l1.64,27.59c.08-.2.17-.39.26-.59.34,4.73.73,8.89.88,13.06.06,1.57.53,2.08,2.05,1.95,4.6-.41,9.21-.78,13.82-1.1,6.11-.42,12.23-.75,18.35-1.16,2.7-.19,5.39-.5,8.23-.77-1.14-16.09-2.27-31.92-3.42-48.08,9.42.37,18.49.72,27.65,1.07.36,4.7.68,9.01,1.02,13.49-.08,0-.17,0-.25,0l1.08,15.75c.47,5.8.94,11.52,1.41,17.17,14.14-.96,28.03-1.89,42.11-2.84-.16-3.22-.23-6.16-.46-9.08ZM363.21,64.75c-.02-.18-.04-.36-.05-.53.02.18.03.36.05.53Z"/>
          <path class="cls-1" d="M354.87,88.64c-.19-1.46-.78-1.9-.96-2.03-.38-.25-.72-.19-1.67-.45-.57-.15-1.14-.31-1.74-.48l-28.22-6.72-4.17,1.61c-11,13.96-25.91,19.77-35.47,15.3-5.18-2.42-8.34-7.65-9.21-9.09,0,0-4.93-8.71-2.92-21.33.62-3.88,2.26-7.46,5.08-10.37,4.16-4.3,9.26-6.42,15.15-7.34,11.43-1.78,23.12,4.23,26.9,15.28.46,1.33,1.01,1.52,2.3,1.02,11.04-4.26,22.11-8.47,33.18-12.67,1.34-.51,1.84-1.3,1.27-2.66-1.44-3.45-2.74-6.96-4.36-10.32-11.02-22.83-34.25-35.56-60.62-32.96-13.18,1.3-24.35,5.34-33.56,11.92-17.14,12.24-23.02,28.93-24.72,34.02-7.1,21.34-3.11,44.15,4.92,55.59,1.98,2.83,8.29,10.77,17.12,19.05,1.45,1.36,2.67,2.44,3.47,3.15-.02.02-.05.04-.07.06l2.92-2.42s.08.06.12.09l1.62-1.34c.54-.07,1.09-.28,1.58-.17,1.39.28,2.78.65,4.09,1.17.55.22,1.26.89,1.32,1.41.13,1.32.26,2.63.39,3.95.1,1.01.19,2.02.29,3.03,1.63,1.15,3.49,2.28,5.64,3.27,8.4,3.89,15.96,3.33,22.15,3.01,7.82-.41,15.54-2.39,23.13-5.93,8.54-3.98,16.03-9.44,22.17-16.7,5.73-6.78,9.87-14.33,11.67-23.07,0,0,1.69-3.27,1.22-6.89Z"/>
        </g>
        <g>
          <path class="cls-1" d="M250.15,143.71c.06,2.08.33,4.16.55,6.24.81,7.79,1.83,15.57,2.4,23.38.73,10.12,1.25,20.25,1.56,30.39.22,7.11.02,14.25-.12,21.37-.06,3.05-.43,6.1-.7,9.14-.18,2.06-.44,4.11-.71,6.63,1.13-.36,2-.4,2.52-.84,6.45-5.57,11.21-11.99,11.16-21.09-.05-8.87.3-17.75.31-26.62.01-6.62-.17-13.24-.36-19.86-.17-5.86-.38-11.73-.74-17.58-.48-7.67-1.1-15.32-1.72-22.98-.05-.59-.43-1.48-.87-1.64-.49-.18-1.4.13-1.83.54-1.16,1.12-2.09,2.47-3.24,3.6-2.42,2.38-4.98,4.62-7.37,7.03-.53.53-.85,1.52-.84,2.29Z"/>
          <path class="cls-1" d="M468.75,148.52c-2.95,2.95-5.88,5.92-8.62,8.69.06.5.04.59.07.62,4.72,3.62,9.42,7.25,14.19,10.81.33.24,1.31.1,1.62-.21,2.71-2.83,5.37-5.71,7.95-8.66.26-.3.15-1.4-.18-1.67-4.03-3.31-8.16-6.49-12.18-9.8-1.18-.97-1.98-.64-2.85.23Z"/>
          <path class="cls-1" d="M446.95,149.59c-.95-.75-1.71-.45-2.41.26-2.95,2.97-5.88,5.95-9.07,9.2,5.19,3.88,10.13,7.58,15.11,11.29,3.53-3.3,6.77-6.32,10.01-9.35-.11-.36-.21-.72-.32-1.08-4.44-3.44-8.89-6.87-13.31-10.33Z"/>
          <path class="cls-1" d="M186.81,268.75c6.19.72,11.79-.41,17.19-3.19,5.58-2.88,10.25-6.88,14.22-11.73,3.84-4.7,7.31-9.65,9.45-15.38,1.84-4.92,1.95-10.07,1.93-15.25-.17-3.06-.44-6.12-.48-9.19-.05-4.19-1.1-8.12-3.06-11.75-1.75-3.24-3.81-6.32-5.77-9.45-1.93-3.09-3.92-6.14-5.83-9.23-.66-1.06-1.2-1.07-1.87-.06-2.69,4.07-5.41,8.11-8.03,12.21-.27.42-.2,1.35.08,1.8,4.69,7.4,9.63,14.65,14.09,22.19,2.05,3.47,3.01,7.49.42,11.39-.39.59-.81,1.18-1.13,1.81-2.49,4.95-6.6,8.48-10.58,12.13-.85.78-1.68,1.61-2.64,2.24-2.47,1.65-4.93,3.31-7.51,4.78-6.88,3.92-14.27,6.5-22.2,6.6-4.09.05-8.23-.98-12.29-1.82-2.19-.46-2.25,1.23-2.76,2.26-.45.91-.53,2.1,1.05,2.58,4.07,1.26,8.05,2.87,12.17,3.94,4.47,1.16,8.86,2.56,13.54,3.11Z"/>
          <path class="cls-1" d="M471.39,180.09c-.77-1.15-1.37-1.07-2.1-.16-2.83,3.56-5.66,7.12-8.4,10.75-.32.43-.32,1.43-.05,1.92,2.25,4.03,4.59,8.01,6.91,12.01,2.22,3.82,3.91,7.86,4.77,12.19.16.78-.15,2.2-.68,2.48-2.23,1.16-4.55,2.44-6.98,2.86-5.22.91-10.52,1.54-15.82,1.88-6,.38-12.03.19-18.03.47-4.28.2-8.1,1.79-11.55,4.46-2.66,2.06-4.16,4.82-5.79,7.63-2.73,4.72-4.36,9.82-4.72,15.12-.34,5.01.31,10.09.51,15.02.14.08-.11,0-.28-.16-5.86-5.23-10.31-11.51-13.69-18.58-1.74-3.62-2.64-7.44-2.02-11.43,1.02-6.45,3.85-12.22,7.16-17.78,2-3.35,4.03-6.68,5.97-10.07.25-.44.02-1.17,0-1.76-.57.02-1.2-.12-1.69.08-1.68.7-3.28,1.62-4.98,2.26-2.15.8-3.29,2.5-4.59,4.24-1.69,2.26-3.57,4.49-5.76,6.26-4.36,3.54-9.83,4.02-15.11,4.21-8.65.3-17.31.09-25.97.08-.56,0-1.12-.08-1.63-.12-.13-.97-.24-1.74-.34-2.51-.86-6.21-3.55-11.76-6.27-17.3-2.54-5.16-5.91-9.56-10.99-12.48-3.03-1.74-6.18-3.12-9.76-3.07-7,.09-12.77,3.17-17.45,8.02-4.33,4.48-7.58,9.67-8.44,16.15-.8,6,.09,11.56,4.29,15.96,4.07,4.26,9.2,6.66,15.19,7.69,7.77,1.33,15.54,1.71,23.37,1.66.5,0,1.01.08,1.83.15-.24,1.01-.21,2.01-.67,2.68-1.96,2.82-3.96,5.62-6.16,8.25-.71.85-2.21,1.01-3.07,1.79-5.15,4.67-10.71,8.67-17.02,11.65-11.65,5.5-23.52,6.23-35.6,1.67-1.62-.61-2.77-.17-3.77.87-.48.49-.54,1.39-.85,2.26.31.24.67.65,1.12.86,5.04,2.28,10.04,4.69,15.18,6.71,2.99,1.17,6.18,2.01,9.36,2.47,6.71.97,13.19,1.48,19.94-1.49,8.42-3.7,14.93-9.69,21.12-15.86,5.48-5.46,8.69-12.72,9.62-20.7.06-.48.82-1.24,1.26-1.25,8.09-.2,16.19-.21,24.28-.46,3.32-.1,6.66-.44,9.65-2.29,1.47-.91,3.1-1.55,5.11-2.53-.85,3.34-1.89,6.02-2.16,8.78-.35,3.53-.4,7.15-.04,10.67.95,9.24,6.17,16.27,12.52,22.55,2.12,2.1,4.45,4.04,6.87,5.79,2.62,1.91,4.91,4.43,8.68,5.24,1.26-3.04,2.55-6.07,3.76-9.12.36-.89.78-1.89.69-2.79-.25-2.57-.83-5.1-1.13-7.66-.81-6.89-2.64-13.71-.39-20.74,1.11-3.47,5.76-7.28,9.51-7.11,2.82.13,5.66,0,8.5-.1,6.9-.22,13.81-.54,20.71-.71,4.15-.1,8.18-.58,12.1-2.13,4.1-1.61,7.57-3.81,10.15-7.5,3.5-5.02,5.94-10.3,5.91-16.57-.03-5.29-1.79-10.18-3.38-15.08-1.92-5.92-5.32-11.11-8.74-16.26ZM312.06,221.59c-3.6-1.2-6.82-3.15-9.23-6.18-1.44-1.81-1.43-4.67.09-6.47,3.04-3.62,6.95-5.41,11.68-5.72,8.39-.55,13.83,4.15,18.25,10.32,2.19,3.05,3.59,6.66,5.34,10.01-9.23.68-17.83.81-26.13-1.96Z"/>
        </g>
      </g>
      <g>
        <path class="cls-3" d="M390.45,279.04c6.14,10.03,14.97,17.24,24.46,23.79,2.02,1.39,4.15.72,6.26.77.28,0,.64-.43.85-.74,2.94-4.39,5.29-9.11,6.03-14.34.36-2.5-.48-5.17-.74-7.76-.54-5.33-1.3-10.64-1.52-15.98-.31-7.32,1.66-7.84,8.14-8.32,7.1-.53,14.27-.14,21.39-.53,5.4-.29,10.85-.79,16.13-1.88,12.07-2.51,18.04-11.23,21.24-22.28,1.52-5.26.9-10.62-.39-15.88-.17-.68-.32-1.37-.32-2.1,2.54,5.64,4.88,11.34,6.19,17.43,2.58,12-1.36,22.02-9.63,30.5-3.99,4.09-9.4,5.88-14.93,6.39-8.67.8-17.39,1.03-26.08,1.5-3.66.2-7.35.2-10.98.63-4.12.49-5.49,1.8-5.26,5.9.41,7.38,1.4,14.73,1.98,22.1.17,2.1.19,4.39-.48,6.32-1.26,3.62-2.96,7.11-4.71,10.54-1.17,2.3-4.84,3.08-7.05,1.62-7.19-4.75-13.91-10.06-19.62-16.58-5.38-6.15-8.36-13.51-10.95-21.09Z"/>
        <path class="cls-3" d="M234.9,148.1c-.96-13.84-1.91-27.46-2.89-41.66.45.84.65,1.17.82,1.51,3.76,7.51,5.23,15.48,5.53,23.86.33,9.49,1.26,18.97,1.93,28.45.02.32,0,.65,0,1.29-31.82,2.97-63.64,5.93-95.59,8.91-1.76-4.41-3.51-8.76-5.37-13.42,31.95-2.98,63.63-5.94,95.58-8.93Z"/>
        <path class="cls-3" d="M159.14,276.58c2.98,1.22,5.47,2.28,7.99,3.28,7.34,2.91,14.85,5.12,22.67,6.45,10.31,1.75,19.48-.51,27.64-6.9,9.35-7.33,16.57-16.31,20.35-27.71.91-2.73,1.28-5.72,1.39-8.61.2-5.37.11-10.75-.05-16.12-.06-2.11-.64-4.21-.78-6.42.34.77.69,1.54,1,2.32,2.14,5.42,4.82,10.72,5.08,16.65.28,6.54.47,13.12.06,19.64-.44,6.9-3.65,12.93-7.56,18.53-4.72,6.77-10.17,12.78-17.19,17.33-8.1,5.25-16.82,6.07-26.06,4.49-9.9-1.68-19.2-5.19-28.32-9.23-.38-.17-.85-.46-1-.81-1.71-4.12-3.36-8.27-5.22-12.89Z"/>
        <path class="cls-3" d="M11.48,66.2c1.88,4.69,3.61,8.99,5.36,13.37,8.25-.76,16.37-1.52,24.56-2.28l-.99-13.95c-9.72.96-19.23,1.9-28.94,2.86Z"/>
        <path class="cls-3" d="M125.23,69.39l-1.42-13.85c-12.32,1.17-24.47,2.32-36.64,3.47,0,1.08-.05,1.92,0,2.75.42,5.8.87,11.6,1.29,17.41.28,3.85.52,7.7.81,11.54.45,6.06.95,12.11,1.4,18.17.27,3.66.49,7.32.76,10.97.44,5.87.91,11.73,1.35,17.59.3,3.98.49,7.96.89,11.93.23,2.32.22,2.39-2.03,2.61-4.68.46-9.35,1.03-14.02,1.57-5.76.66-11.52,1.33-17.27,2.01-2.69.32-5.38.66-8.33,1.02,1.62,4.06,3.18,7.79,4.57,11.57.53,1.44,1.24,1.8,2.75,1.62,10.28-1.26,20.58-2.42,30.87-3.61,2.97-.35,5.93-.73,9.05-1.11-2.28-31-4.55-61.76-6.83-92.65,11.16-1.02,22.02-2.02,32.78-3.01Z"/>
        <path class="cls-3" d="M318.12,80.41l5.37-2.08c-4.37-14.3-18.41-18.85-28.4-16.8-14.75,3.03-20.39,12.62-19.6,27.01l5.9,5.88c-.08-.36-.06-.77.02-1.25,1.43-8.88,7.82-15.68,16.95-17.75,2.35-.53,4.78-.72,5.99-.89,5.35.05,9.26.93,12.9,2.96.97.54,1.12,1.11.99,2.19-.03.24-.07.47-.11.71Z"/>
        <path class="cls-3" d="M229.14,132.12c-.01-.52-.02-1.05-.06-1.57-.21-2.96-1.16-15.56-1.35-18.52,0,0,0-.11-.42-7.17h0s-.23-2.15-.7-6.45c-1.43-.23-2.86-.46-4.29-.7.01,0,.02,0,.03,0,.75,10.92,1.49,21.66,2.26,32.87-3.78.32-7.33.61-10.87.94-6.03.55-12.05,1.14-18.08,1.68-4.53.41-9.07.71-13.6,1.18-2.02.21-3.99.76-6,1.04-1.64.23-3.31.28-4.96.39-4.48.3-8.95.57-13.43.9-3.88.28-7.75.59-11.62.95-2.58.24-5.14.61-8.07.96-2.94-28.03-5.85-55.87-8.76-83.64l-5.25.49,1.42,13.91c.15-.01.29-.03.44-.04.19.42.28.54.29.66,1.6,15.37,3.19,30.74,4.8,46.11.89,8.53,1.87,17.06,2.69,25.6.13,1.3.89,1.64,1.73,1.58,5.25-.42,10.49-.97,15.73-1.47,5.84-.56,11.67-1.12,17.51-1.66,4.41-.4,8.82-.73,13.23-1.15,4.59-.44,9.17-.97,13.76-1.41,4.42-.42,8.84-.77,13.26-1.18,5.96-.55,11.92-1.16,17.89-1.64,2.44-.2,2.5-.12,2.44-2.65Z"/>
        <path class="cls-3" d="M323.54,78.47l-.82.32,24.92,5.94c4.22-1.61,7.96-3.03,11.87-4.52l-1.04-15.27c-.4.31-1.06.56-2.1.95-10.94,4.19-21.88,8.39-32.83,12.59,0,0,0-.01,0-.02Z"/>
        <path class="cls-3" d="M402.75,22.15c.66,9.57,1.32,19.05,1.99,28.67h4.37c-.05-10.19-.95-19.89-6.36-28.67Z"/>
        <path class="cls-3" d="M432.22,120.44l-.91-13.24c-7.6-.28-14.97-.56-22.6-.85,1.12,16.17,2.21,32.05,3.33,48.16-14.16.99-28.12,1.96-42.29,2.95,1.74,4.37,3.31,8.45,5.02,12.48.2.46,1.2.87,1.8.83,10.86-.7,21.72-1.47,32.58-2.24,2.73-.19,5.45-.42,8.32-.64-1.12-16.11-2.23-32.02-3.35-48.11,6.23.23,12.07.44,18.09.65Z"/>
        <path class="cls-3" d="M473.02,38.18c.26,3.45.52,6.9.8,10.34.47,5.72.98,11.43,1.42,17.15.39,5.15.66,10.31,1.07,15.45.55,6.95,1.22,13.9,1.77,20.85.43,5.46.73,10.94,1.15,16.4.65,8.46,1.37,16.92,2.04,25.38.15,1.87.24,3.74.37,5.84l5.1,4.09c-.29-.54-.44-1.15-.49-1.88-1.14-15.57-2.35-31.13-3.55-46.69-1.81-23.54-3.74-47.07-5.36-70.62-.43-6.29-3.47-11.5-5.5-17.17-.17,1.05-.23,2.07-.16,3.08.43,5.92.89,11.85,1.34,17.77Z"/>
        <path class="cls-3" d="M380.59,255.51c-3.45.16-7.07.38-10.7.47-3.79.1-7.59.08-11.38.06-.99,0-1.43.24-1.74,1.32-3.25,11.27-9.56,20.53-18.63,27.95-10.97,8.97-23.09,13.12-37.36,9.64-9.6-2.33-18.66-5.88-27.36-10.45-1.06-.55-2.13-1.08-3.63-1.83,1.81,4.53,3.38,8.52,5.02,12.47.22.54.71,1.1,1.23,1.37,8.8,4.73,17.82,8.94,27.6,11.24,7.31,1.72,14.72,3.14,22.12.63,17.45-5.93,29.23-17.73,35.6-34.97,1.43-3.88,1.34-3.81,5.6-3.84,6.24-.04,12.47-.26,18.6-.4l-4.96-13.67Z"/>
        <path class="cls-3" d="M262.15,271.01l19.45-19.45c.61-3.85.85-7.78.91-11.68.39-24.21-.12-48.4-2.07-72.54-.1-1.2-.2-2.39-.32-3.81,16.41,6.65,32.57,6.58,48.51-.21,15.55-6.61,27.16-17.42,34.02-33.52l-1.67-28.15c-.08-.03-.15-.06-.23-.09-.24.47-.6.91-.69,1.4-.48,2.82-.66,5.71-1.37,8.47-3.17,12.27-10.27,21.98-20.23,29.55-17.65,13.4-37.19,17.41-58.63,11.02-1.32-.39-2.05-1.1-2.51-2.41-1.01-2.84-2.19-5.62-3.39-8.63-.16.41-.25.53-.24.64.81,8.91,1.85,17.81,2.39,26.73.61,10.07.95,20.16,1.05,30.24.12,11.41-.06,22.82-.32,34.22-.1,4.42-.73,8.82-2.99,12.83-2.78,4.95-6.99,8.62-10.86,12.61-1.1,1.13-2.14,1.33-3.57.56-1.78-.95-3.67-1.68-5.98-2.71,1.51,3.79,3.11,6.91,3.99,10.23.75,2.81,2.61,3.83,4.74,4.7Z"/>
        <path class="cls-3" d="M440.66,187.55c4.67,3.49,9.42,6.9,14.12,10.35,1.14.84,2.24,1.74,3.36,2.61.58-.15,1.15-.31,1.73-.46l-6.61-12.68c-6.21-4.64-12.36-9.23-18.49-13.82-.14.13-.28.27-.42.4,1.52,3.8,2.99,7.61,4.59,11.38.36.84.99,1.68,1.72,2.23Z"/>
        <path class="cls-3" d="M488.26,155.33l-7.34-5.88c-.31-.15-.58-.28-.82-.45-1.48-1.05-2.95-2.12-4.43-3.18l-3.18,3.18c3.74,3.06,7.56,6.02,11.3,9.09.32.27.44,1.37.18,1.67-2.58,2.95-5.24,5.83-7.95,8.66-.31.32-1.29.46-1.62.21-4.11-3.06-8.17-6.19-12.23-9.31l-1.6,1.6s.01.04.02.06c-3.24,3.02-6.48,6.05-10.01,9.35-4.71-3.52-9.4-7.03-14.29-10.69l-3.04,3.04c5.4,4,10.77,8.05,16.12,12.11.75.57,1.25.93,2.12.09,3.1-2.97,6.33-5.8,9.39-8.81,1.15-1.13,1.92-1.37,3.26-.26,3.51,2.87,7.15,5.59,10.68,8.32,6.73-4.09,11.16-10.4,16.38-16.12-.93-.86-1.9-1.82-2.95-2.7Z"/>
        <path class="cls-3" d="M499.86,179.76c-1.38-2.37-2.12-5.13-3.25-7.97-4.93,5.7-9.22,11.54-15.34,15.41l6.18,13.23c.14-.28.36-.54.68-.84,3.4-3.26,6.59-6.75,10.1-9.88,3.37-3,3.92-6.02,1.63-9.95Z"/>
      </g>
    </g>
  </g>
</svg>