<svg width="189" height="191" viewBox="0 0 189 191" fill="none" xmlns="http://www.w3.org/2000/svg">
<path d="M46.5432 29.1264C55.0532 31.4164 59.9832 29.9664 62.9032 28.2264C67.0832 25.7364 67.3732 22.5764 72.2732 20.5764C76.5332 18.8364 78.1232 20.5564 83.8432 19.2864C89.6732 17.9964 91.1932 13.4564 94.8732 14.1864C96.8632 14.5864 98.0432 16.0364 98.9032 16.9864C104.313 22.9664 113.813 27.3464 120.603 28.2164C127.993 29.1564 134.873 26.4864 139.833 29.4964C143.653 31.8164 142.453 33.8564 149.963 47.3664C157.293 60.5464 160.783 62.9764 163.243 64.2164C166.703 65.9764 168.503 65.5864 170.083 67.7164C172.553 71.0564 170.463 75.1564 168.103 84.8964C165.453 95.8064 162.843 106.766 166.313 110.686C166.473 110.856 167.333 111.816 168.353 113.236C170.433 116.146 171.643 117.846 171.193 119.306C170.703 120.866 168.763 120.546 165.803 122.936C164.223 124.206 163.383 125.336 162.493 126.446C156.603 133.766 153.073 134.306 148.923 141.166C147.693 143.196 146.813 144.806 145.933 147.226C144.053 152.396 144.593 155.536 141.843 158.536C137.023 163.796 130.983 158.966 118.573 162.256C103.743 166.196 101.703 175.886 93.7832 174.466C84.4932 172.796 85.7332 157.856 74.6632 155.116C70.3332 154.046 62.4632 154.376 55.5132 157.416C51.9532 158.966 48.9632 161.086 47.0032 159.816C45.2532 158.686 46.1732 155.786 45.5632 152.306C43.9832 143.346 39.6232 137.106 37.3932 133.926C32.9332 127.556 30.0832 123.316 24.6832 121.746C21.3332 120.776 18.3032 121.186 17.4032 119.296C16.3932 117.166 19.2432 114.486 21.5632 110.436C25.1632 104.126 25.4532 98.0164 25.6432 93.8364C26.1432 83.2364 21.1332 74.5864 17.9432 70.0664" fill="#FCFDFD"/>
<path d="M145.833 94.5661C145.863 123.006 122.773 146.116 94.3432 146.116C65.8532 146.116 42.7532 123.096 42.7232 94.6761C42.6932 66.1061 65.8232 42.9961 94.4332 42.9961C122.743 42.9961 145.803 66.1461 145.833 94.5561V94.5661ZM128.493 94.6661C128.493 90.1761 128.483 85.6961 128.503 81.2061C128.503 80.5461 128.333 80.3361 127.663 80.3461C124.973 80.3861 122.293 80.3961 119.603 80.3461C118.853 80.3361 118.643 80.5161 118.643 81.2861C118.673 90.1261 118.673 98.9661 118.643 107.806C118.643 108.576 118.803 108.856 119.643 108.836C122.263 108.776 124.883 108.776 127.493 108.836C128.303 108.856 128.513 108.626 128.513 107.826C128.473 103.436 128.493 99.0561 128.493 94.6661ZM66.0632 94.5561C66.0632 96.7661 66.0632 98.9761 66.0632 101.186C66.0632 103.426 66.0932 105.676 66.0532 107.916C66.0432 108.626 66.2232 108.916 66.9632 108.796C67.7032 108.676 68.4532 108.666 69.1832 108.526C73.2932 107.746 76.1232 104.596 76.1432 100.656C76.1832 94.1661 76.1432 87.6761 76.1632 81.1761C76.1632 80.4761 75.9332 80.3361 75.2832 80.3461C72.5632 80.3761 69.8432 80.3961 67.1232 80.3461C66.2832 80.3261 66.0332 80.5361 66.0432 81.3961C66.0832 85.7761 66.0632 90.1661 66.0632 94.5461V94.5561ZM63.1632 94.5761C63.1632 90.1261 63.1532 85.6661 63.1732 81.2161C63.1732 80.5761 63.0432 80.3361 62.3432 80.3461C59.5932 80.3861 56.8332 80.3961 54.0832 80.3461C53.3332 80.3361 53.1132 80.5161 53.1232 81.2961C53.1532 87.7561 53.1432 94.2161 53.1432 100.676C53.1432 102.176 53.5832 103.556 54.3932 104.806C56.1832 107.576 58.9132 108.536 62.0332 108.786C62.9032 108.856 63.2032 108.696 63.1932 107.736C63.1332 103.346 63.1732 98.9661 63.1632 94.5761ZM94.1532 108.816C95.4832 108.816 96.8032 108.796 98.1332 108.816C98.6932 108.826 98.9532 108.756 98.7432 108.076C98.3932 106.946 98.1432 105.776 97.8432 104.626C95.8132 96.8061 93.7732 88.9961 91.7632 81.1661C91.6132 80.5761 91.4332 80.3161 90.7632 80.3361C88.6932 80.3861 86.6132 80.3561 84.5332 80.3461C84.1032 80.3461 83.8432 80.3661 83.6632 80.9061C83.0632 82.6561 83.0032 84.3061 83.5032 86.1461C85.4932 93.3761 87.3432 100.646 89.2032 107.916C89.3832 108.626 89.6732 108.846 90.3732 108.806C91.6332 108.746 92.8932 108.786 94.1532 108.786V108.816ZM106.603 108.816C107.863 108.816 109.123 108.776 110.373 108.816C111.173 108.846 111.473 108.716 111.183 107.806C110.673 106.196 110.313 104.526 109.883 102.896C107.983 95.6461 106.083 88.4061 104.183 81.1561C104.063 80.7061 104.013 80.3361 103.383 80.3461C101.213 80.3761 99.0332 80.3561 96.8632 80.3561C96.6632 80.3561 96.3532 80.3161 96.3132 80.5161C96.0632 81.7561 95.2432 82.9361 95.5732 84.2361C97.6032 92.1861 99.6832 100.116 101.733 108.066C101.873 108.626 102.133 108.836 102.723 108.816C104.013 108.776 105.303 108.806 106.593 108.806L106.603 108.816ZM81.6432 89.1361C81.3932 89.2761 81.3632 89.4861 81.3132 89.6861C79.6732 95.7761 78.0332 101.876 76.3632 107.956C76.1732 108.656 76.2532 108.846 76.9932 108.836C79.9532 108.806 82.9132 108.806 85.8732 108.836C86.6432 108.836 86.7032 108.576 86.5032 107.926C86.1532 106.796 85.8932 105.636 85.5932 104.486C84.2732 99.3761 82.9532 94.2661 81.6332 89.1361H81.6432ZM111.713 91.7261C111.773 91.7461 111.843 91.7561 111.903 91.7761C113.573 88.0161 115.243 84.2561 116.983 80.3661C115.293 80.3661 113.743 80.3761 112.193 80.3661C111.643 80.3661 111.713 80.7161 111.713 81.0461C111.713 84.6061 111.713 88.1661 111.713 91.7261ZM130.183 80.3661C131.923 84.2661 133.583 87.9861 135.243 91.7061C135.453 88.0461 135.453 84.4261 135.463 80.8161C135.463 80.3461 135.163 80.3661 134.853 80.3661C133.363 80.3661 131.873 80.3661 130.193 80.3661H130.183Z" fill="#294B8A"/>
<path d="M171.183 69.3359V119.316C170.003 117.666 168.963 116.216 167.933 114.776C163.343 108.326 158.763 101.856 154.143 95.4259C153.593 94.6559 153.503 94.1559 154.093 93.3359C159.533 85.7359 164.933 78.1059 170.333 70.4759C170.543 70.1759 170.773 69.8859 171.173 69.3459L171.183 69.3359Z" fill="#294B8A"/>
<path d="M171.243 69.3453C168.803 68.5353 166.623 67.8053 164.443 67.0853C157.303 64.6953 150.163 62.3053 143.023 59.9053C142.553 59.7453 142.113 59.6553 142.113 58.9253C142.033 49.1653 141.923 39.4053 141.813 29.6353C141.813 29.5053 141.833 29.3753 141.863 28.9453C151.703 42.4753 161.393 55.7953 171.243 69.3453Z" fill="#294B8A"/>
<path d="M170.943 119.566C169.513 121.876 167.813 123.996 166.223 126.186C158.443 136.916 150.653 147.636 142.853 158.356C142.593 158.706 142.323 159.046 142.043 159.396C141.673 159.146 141.823 158.806 141.833 158.546C141.923 149.056 142.043 139.576 142.113 130.086C142.113 129.266 142.373 128.946 143.143 128.696C152.093 125.726 161.023 122.706 169.963 119.706C170.253 119.606 170.553 119.566 170.843 119.496C170.873 119.516 170.903 119.546 170.933 119.566H170.943Z" fill="#294B8A"/>
<path d="M94.0732 13.7369C92.7432 15.5269 91.4132 17.3269 90.0832 19.1169C85.5632 25.2069 81.0432 31.2869 76.5432 37.3869C76.1632 37.8969 75.8432 38.0569 75.2032 37.8569C66.0132 34.9469 56.8232 32.0569 47.6332 29.1669C47.4432 29.1069 47.2232 29.1269 47.0332 28.7969C62.6932 23.7069 78.3232 18.6269 93.9532 13.5469L94.0832 13.7469L94.0732 13.7369Z" fill="#294B8A"/>
<path d="M94.2534 175.195C78.3634 170.025 62.7234 164.945 46.9834 159.825C47.3534 159.475 47.7334 159.435 48.0934 159.315C57.0634 156.495 66.0234 153.685 74.9834 150.835C75.7434 150.595 76.1534 150.695 76.6534 151.365C82.3434 159.085 88.0634 166.775 93.7734 174.475C93.8934 174.635 94.0034 174.815 94.2634 175.195H94.2534Z" fill="#294B8A"/>
<path d="M141.813 159.746C125.883 164.936 110.243 170.026 94.3032 175.206C95.5132 173.566 96.5432 172.166 97.5832 170.756C102.273 164.416 106.983 158.086 111.643 151.716C112.293 150.826 112.793 150.576 113.933 150.936C122.823 153.796 131.733 156.556 140.643 159.346C140.933 159.436 141.223 159.536 141.813 159.726V159.746Z" fill="#294B8A"/>
<path d="M141.513 28.987C139.583 29.587 137.653 30.187 135.733 30.797C128.283 33.137 120.843 35.467 113.403 37.827C112.803 38.017 112.453 37.947 112.053 37.407C106.343 29.657 100.613 21.927 94.8831 14.197C94.7631 14.037 94.6831 13.857 94.4531 13.457C110.283 18.607 125.893 23.697 141.513 28.777C141.513 28.847 141.513 28.917 141.513 28.987Z" fill="#294B8A"/>
<path d="M17.5635 69.0967C27.2135 55.7867 36.8735 42.4767 46.5435 29.1367C46.8735 29.4967 46.7335 29.8467 46.7335 30.1567C46.6335 39.6467 46.5235 49.1267 46.4335 58.6167C46.4335 59.3067 46.2935 59.6767 45.5435 59.9167C36.6235 62.8667 27.7235 65.8667 18.8135 68.8367C18.4235 68.9667 18.0335 69.2967 17.5635 69.0667V69.0867V69.0967Z" fill="#294B8A"/>
<path d="M46.5333 159.477C36.8833 146.177 27.2333 132.877 17.3833 119.307C19.6233 120.067 21.5633 120.717 23.5033 121.367C30.8733 123.827 38.2433 126.297 45.6133 128.757C46.0833 128.917 46.4233 129.057 46.4233 129.697C46.5033 139.587 46.6233 149.477 46.7333 159.367C46.6633 159.397 46.5933 159.437 46.5333 159.467V159.477Z" fill="#294B8A"/>
<path d="M17.4431 119.206V69.6862C17.7631 69.6162 17.8131 69.9162 17.9231 70.0862C23.4531 77.8662 28.9631 85.6662 34.5131 93.4362C35.0031 94.1162 35.0331 94.5662 34.5131 95.2762C28.9931 102.976 23.5031 110.716 18.0131 118.436C17.8631 118.646 17.7131 118.846 17.4331 119.216L17.4431 119.206Z" fill="#294B8A"/>
<path d="M94.3031 190.067C94.1231 189.857 93.9831 189.747 93.9031 189.607C93.3231 188.537 92.5631 188.087 91.3831 188.747C90.8631 189.037 90.6131 188.777 90.7031 188.227C90.9131 186.987 90.3931 186.337 89.1831 186.147C88.5531 186.057 88.5631 185.697 88.9531 185.327C89.8831 184.457 89.8331 183.627 88.9531 182.767C88.4531 182.287 88.7131 181.967 89.2531 181.897C90.4831 181.737 90.9031 181.057 90.7131 179.887C90.6131 179.257 90.9031 179.087 91.4431 179.367C92.4831 179.907 93.2631 179.697 93.8031 178.627C94.0931 178.047 94.4631 177.967 94.7731 178.617C95.2931 179.707 96.0731 179.917 97.1131 179.377C97.6831 179.077 97.9431 179.287 97.8431 179.897C97.6431 181.077 98.0731 181.747 99.2931 181.917C99.8331 181.997 100.103 182.287 99.6131 182.777C98.7631 183.637 98.6531 184.467 99.6131 185.337C99.9931 185.687 100.033 186.057 99.3831 186.147C98.1031 186.327 97.6231 187.057 97.8431 188.307C97.9431 188.857 97.6531 188.947 97.1931 188.757C97.0331 188.697 96.8631 188.667 96.7131 188.597C95.9231 188.177 95.3931 188.417 94.9931 189.187C94.8431 189.477 94.5831 189.717 94.3031 190.067Z" fill="#FEFEFE"/>
<path d="M17.0532 44.9854C18.9532 46.3654 20.8332 47.7454 22.7432 49.1054C23.1832 49.4154 23.4632 49.6354 23.0632 50.2154C22.6532 50.8054 22.3732 50.3854 22.0832 50.1754C19.6632 48.4754 17.2432 46.7754 14.8432 45.0454C14.5932 44.8654 13.9532 44.7254 14.3432 44.2554C14.7132 43.8054 14.7032 42.8754 15.7532 43.1154C17.9632 43.6254 20.2032 44.0554 22.4332 44.5154C22.8532 44.6054 23.2832 44.6754 23.7332 44.7654C23.7832 44.1854 23.4432 43.8654 23.2232 43.5154C22.0832 41.6254 20.9232 39.7454 19.7732 37.8554C19.4032 37.2554 19.6932 36.2054 20.2832 35.8554C20.5232 35.7154 20.6632 35.8554 20.8232 35.9754C23.4132 37.7854 26.0032 39.6054 28.6032 41.4054C29.0132 41.6854 28.9032 41.9054 28.6832 42.2254C28.4432 42.5854 28.2732 42.7754 27.8232 42.4454C25.7032 40.9354 23.5632 39.4654 21.3032 38.0554C21.7132 38.7454 22.1232 39.4554 22.5432 40.1354C23.5932 41.8454 24.6632 43.5454 25.7032 45.2554C25.8732 45.5254 26.1332 45.7954 25.8532 46.1754C25.5732 46.5654 25.2632 46.3854 24.9432 46.3154C22.3832 45.7954 19.8132 45.2854 17.2532 44.7754C17.0632 44.6654 16.8632 44.5654 16.6532 44.7454C16.7832 44.8254 16.9132 44.9154 17.0432 44.9954L17.0532 44.9854Z" fill="#FEFEFE"/>
<path d="M100.403 8.67606C101.733 6.11606 102.963 3.73606 104.203 1.36606C104.363 1.06606 104.423 0.66606 104.923 0.60606C106.133 0.46606 106.403 0.72606 106.313 1.92606C106.103 4.73606 105.913 7.55606 105.713 10.3661C105.683 10.8461 105.723 11.3261 104.953 11.2461C104.203 11.1661 104.433 10.6761 104.463 10.2761C104.633 7.76606 104.823 5.26606 105.003 2.72606C104.583 2.80606 104.573 3.16606 104.453 3.40606C103.283 5.66606 102.133 7.93606 100.963 10.2061C100.803 10.5161 100.773 10.9561 100.243 10.9361C99.6435 10.9161 99.6835 10.4061 99.5635 10.0661C98.6335 7.41606 97.7335 4.76606 96.6435 2.13606C96.4535 4.71606 96.2435 7.29606 96.0735 9.87606C96.0435 10.3761 95.9135 10.6061 95.3635 10.5661C94.9235 10.5361 94.7735 10.3861 94.8035 9.94606C95.0335 6.86606 95.2435 3.77606 95.4735 0.69606C95.4935 0.38606 95.4335 -0.0939398 95.9735 0.0160602C96.5735 0.13606 97.3335 -0.18394 97.6335 0.75606C98.3435 2.94606 99.1235 5.11606 99.8835 7.29606C100.013 7.67606 100.163 8.05606 100.393 8.67606H100.403Z" fill="#FEFEFE"/>
<path d="M167.573 48.8359C169.583 47.5059 171.603 46.1859 173.613 44.8459C174.023 44.5659 174.293 44.4159 174.663 44.9459C175.083 45.5559 174.663 45.6959 174.303 45.9459C171.913 47.5659 169.523 49.1859 167.123 50.7859C166.823 50.9859 166.493 51.5259 166.123 51.1459C165.703 50.7259 165.203 50.2659 165.553 49.4659C166.283 47.7459 166.923 45.9959 167.593 44.2459C168.083 42.9859 168.563 41.7359 169.103 40.3159C168.263 40.5559 167.783 41.0359 167.233 41.3959C165.673 42.4259 164.123 43.4759 162.593 44.5459C162.173 44.8359 161.903 44.9659 161.523 44.4459C161.083 43.8259 161.563 43.6759 161.903 43.4459C164.293 41.8259 166.693 40.2159 169.103 38.6259C169.393 38.4359 169.713 37.8659 170.123 38.2759C170.553 38.7059 170.963 39.1859 170.633 39.9759C169.613 42.4259 168.683 44.9059 167.733 47.3759C167.573 47.7859 167.463 48.2059 167.323 48.6259C167.303 48.7059 167.233 48.8259 167.273 48.8759C167.373 49.0159 167.483 48.9159 167.583 48.8459L167.573 48.8359Z" fill="#FEFEFE"/>
<path d="M39.5031 20.6461C40.8631 22.6361 42.2131 24.6261 43.5731 26.6161C43.8331 26.9961 44.2031 27.3061 43.5431 27.7561C42.8531 28.2361 42.7331 27.6761 42.4931 27.3361C40.8531 24.9661 39.2131 22.5861 37.5931 20.1961C37.4131 19.9361 36.8731 19.6561 37.3131 19.2761C37.7331 18.9161 38.0731 18.3461 38.8731 18.6661C41.4931 19.7061 44.1331 20.6661 46.7731 21.6561C47.1731 21.8061 47.5831 21.9361 48.0031 22.0861C48.1531 21.6361 47.8531 21.4461 47.7031 21.2261C46.4731 19.4361 45.2231 17.6561 44.0031 15.8561C43.7731 15.5161 43.0931 15.1961 43.8731 14.6461C44.5931 14.1361 44.7431 14.7461 45.0031 15.1161C46.6131 17.4361 48.2131 19.7561 49.7831 22.0961C49.9931 22.4061 50.6231 22.7161 50.1331 23.1761C49.6931 23.5861 49.2231 24.0161 48.4231 23.6761C46.5131 22.8761 44.5531 22.2061 42.6131 21.4861C41.6631 21.1361 40.7031 20.7961 39.7431 20.4461C39.6331 20.4461 39.5231 20.4261 39.4131 20.4161C39.4431 20.4961 39.4731 20.5761 39.4931 20.6561L39.5031 20.6461Z" fill="#FEFEFE"/>
<path d="M177.893 132.856C175.663 131.726 173.433 130.586 171.193 129.476C170.673 129.216 170.493 129.026 170.813 128.436C171.133 127.856 171.403 128.086 171.773 128.276C174.343 129.586 176.933 130.876 179.493 132.196C179.833 132.366 180.513 132.366 180.293 133.016C180.113 133.566 179.933 134.146 179.133 134.246C177.113 134.486 175.093 134.806 173.083 135.096C171.953 135.256 170.823 135.426 169.563 135.616C169.893 136.056 170.263 136.186 170.603 136.356C172.423 137.276 174.243 138.186 176.053 139.116C176.483 139.336 177.193 139.406 176.713 140.236C176.233 141.056 175.803 140.346 175.463 140.186C172.933 138.956 170.423 137.676 167.913 136.386C167.623 136.236 167.003 136.226 167.183 135.746C167.373 135.236 167.463 134.556 168.283 134.456C170.713 134.156 173.123 133.786 175.543 133.446C176.313 133.336 177.083 133.216 177.843 133.096L177.883 132.856H177.893Z" fill="#FEFEFE"/>
<path d="M131.083 16.6557C132.053 14.3757 133.023 12.1057 134.003 9.83574C134.173 9.43574 134.213 8.89574 134.973 9.22574C135.763 9.56574 135.313 9.99574 135.163 10.3557C134.043 13.0157 132.903 15.6657 131.743 18.3057C131.613 18.6157 131.603 19.2057 131.123 19.0757C130.623 18.9457 129.983 18.8757 129.843 18.1157C129.483 16.2157 129.063 14.3257 128.673 12.4357C128.393 11.0857 128.113 9.73574 127.793 8.23574C127.163 9.16574 126.893 10.1157 126.493 10.9957C125.833 12.4457 125.213 13.9157 124.603 15.3957C124.393 15.9057 124.223 16.1757 123.583 15.8957C122.883 15.5957 123.313 15.2357 123.433 14.9357C124.553 12.2857 125.693 9.62574 126.863 6.99574C127.013 6.65574 126.943 5.94574 127.603 6.11574C128.153 6.25574 128.733 6.41574 128.883 7.21574C129.393 9.88574 129.973 12.5357 130.533 15.1857C130.633 15.6757 130.753 16.1557 130.863 16.6457C130.943 16.6457 131.013 16.6457 131.093 16.6557H131.083Z" fill="#FEFEFE"/>
<path d="M54.3232 170.376C53.9432 171.156 53.5632 171.926 53.1932 172.706C52.4432 174.266 51.6932 175.826 50.9632 177.406C50.7732 177.806 50.6132 178.016 50.1332 177.746C49.7632 177.526 49.5732 177.376 49.8132 176.896C51.1932 174.096 52.5232 171.266 53.8832 168.456C53.9732 168.266 54.0332 167.886 54.3432 168.086C54.7832 168.376 55.4932 168.276 55.6132 169.076C55.9032 171.096 56.2732 173.096 56.6032 175.106C56.8132 176.346 57.0132 177.586 57.2332 178.926C57.7032 178.496 57.8232 177.966 58.0432 177.516C58.9332 175.716 59.7932 173.916 60.6732 172.106C60.8732 171.696 60.9632 171.196 61.6832 171.526C62.4332 171.866 61.9532 172.246 61.8032 172.566C60.5932 175.146 59.3632 177.726 58.1032 180.286C57.9432 180.626 57.9732 181.336 57.3432 181.156C56.7632 180.986 56.1732 180.776 56.0632 179.926C55.7532 177.606 55.3332 175.296 54.9532 172.986C54.8132 172.136 54.6632 171.286 54.5132 170.426C54.4432 170.416 54.3832 170.396 54.3132 170.386L54.3232 170.376Z" fill="#FEFEFE"/>
<path d="M170.803 148.065C170.683 151.215 168.083 153.755 165.093 153.645C162.143 153.535 159.543 150.845 159.633 147.995C159.733 144.865 162.343 142.315 165.333 142.425C168.293 142.535 170.903 145.225 170.803 148.065ZM165.493 152.285C167.753 152.265 169.553 150.465 169.563 148.205C169.563 145.845 167.423 143.745 165.023 143.775C162.683 143.805 160.913 145.585 160.923 147.915C160.923 150.295 163.033 152.305 165.493 152.285Z" fill="#FEFEFE"/>
<path d="M12.4931 77.4065C12.4531 80.6365 10.0931 83.0265 6.99311 82.9865C3.78311 82.9365 1.37311 80.5665 1.40311 77.4865C1.43311 74.2765 3.79311 71.8765 6.90311 71.9065C10.1031 71.9365 12.5231 74.3265 12.4931 77.4165V77.4065ZM7.06311 81.6065C9.51311 81.6465 11.2331 79.9665 11.2931 77.4965C11.3431 75.1865 9.43311 73.2965 6.99311 73.2365C4.49311 73.1865 2.60311 74.9765 2.55311 77.4265C2.51311 79.7065 4.51311 81.5665 7.06311 81.6065Z" fill="#FEFEFE"/>
<path d="M145.093 161.826C147.993 161.816 150.583 164.466 150.643 167.496C150.693 170.336 147.913 173.056 144.963 173.036C142.043 173.016 139.473 170.366 139.453 167.346C139.433 164.386 142.033 161.836 145.093 161.826ZM149.293 167.796C149.303 165.266 147.283 163.076 144.933 163.076C142.593 163.076 140.723 164.936 140.733 167.266C140.743 169.566 142.873 171.766 145.113 171.806C147.313 171.846 149.283 169.956 149.293 167.796Z" fill="#FEFEFE"/>
<path d="M71.8634 2.72663C72.4034 2.72663 72.9534 2.71663 73.4634 2.94663C73.7634 3.08663 74.3334 3.05663 74.0834 3.61663C73.9034 4.01663 73.8034 4.54663 73.0034 4.24663C71.3134 3.59663 69.4034 4.15663 68.3734 5.42663C67.2534 6.79663 67.1034 8.89663 68.0234 10.5066C68.9634 12.1566 70.4934 12.8966 72.3934 12.5966C72.6634 12.5566 72.9234 12.4966 73.1834 12.4166C75.3234 11.7566 75.8334 10.2366 74.5434 8.41663C74.3534 8.15663 74.1534 8.21663 73.9234 8.27663C73.4634 8.39663 72.9934 8.49663 72.5434 8.63663C72.1634 8.75663 72.0534 8.53663 71.9834 8.25663C71.9134 7.96663 71.7734 7.63663 72.2334 7.51663C73.1534 7.27663 74.0834 7.06663 74.9934 6.80663C75.3934 6.69663 75.4734 6.95663 75.5534 7.21663C75.9234 8.55663 76.2834 9.90663 76.6434 11.2466C76.7234 11.5266 76.7034 11.7766 76.4534 11.9766C74.5134 13.4966 72.3834 14.3466 69.9134 13.6466C67.6634 13.0066 66.2734 11.0566 66.0934 8.52663C65.9434 6.33663 67.2334 4.25663 69.3134 3.30663C70.1334 2.93663 70.9834 2.74663 71.8834 2.72663H71.8634Z" fill="#FEFEFE"/>
<path d="M180.733 57.3865C180.753 60.3765 179.243 62.2665 176.633 62.9965C174.403 63.6165 172.103 62.6865 170.923 60.5665C170.263 59.3865 169.773 58.1165 169.183 56.8965C168.983 56.4865 169.103 56.2965 169.493 56.1265C172.343 54.8665 175.193 53.5965 178.043 52.3265C178.323 52.2065 178.623 51.9965 178.803 52.4365C179.513 54.2165 180.663 55.8465 180.743 57.3765L180.733 57.3865ZM174.933 61.8465C178.403 61.8565 180.333 59.0365 179.093 55.9865C178.873 55.4565 178.603 54.9465 178.403 54.4065C178.193 53.8465 177.943 53.7065 177.353 53.9865C175.953 54.6665 174.513 55.2565 173.093 55.9065C171.24 56.7665 170.84 58.0999 171.893 59.9065C172.613 61.1365 173.643 61.8565 174.933 61.8365V61.8465Z" fill="#FEFEFE"/>
<path d="M130.223 181.256C130.083 181.256 129.843 181.256 129.613 181.216C129.243 181.146 128.713 181.216 128.903 180.536C129.043 180.056 129.153 179.716 129.853 179.856C132.413 180.356 134.723 178.456 134.793 175.896C134.833 174.006 133.613 172.126 131.903 171.496C130.343 170.916 128.023 171.556 126.873 172.876C126.623 173.166 126.503 173.426 126.693 173.786C126.803 173.996 126.893 174.216 126.983 174.436C127.703 176.126 127.713 176.136 129.443 175.506C129.803 175.376 130.063 175.306 130.243 175.756C130.383 176.116 130.403 176.326 130.003 176.566C128.217 177.646 126.893 177.256 126.033 175.396C125.893 175.086 125.753 174.776 125.613 174.466C124.913 172.936 124.923 172.886 126.243 171.786C128.643 169.786 131.663 169.476 133.753 170.996C135.693 172.416 136.603 175.066 135.893 177.226C135.123 179.566 132.793 181.246 130.223 181.256Z" fill="#FEFEFE"/>
<path d="M22.0931 137.057C23.0131 137.767 22.9731 138.477 22.4931 139.347C21.8931 140.407 21.4731 141.567 20.8631 142.627C20.4131 143.417 20.9631 143.897 21.3431 144.317C21.6831 144.707 22.0431 144.137 22.3531 143.957C23.2231 143.427 24.0631 142.857 24.8931 142.267C25.2931 141.977 25.5031 142.037 25.7731 142.457C26.0431 142.877 25.9831 143.077 25.5731 143.347C22.9931 145.047 20.4331 146.777 17.8631 148.487C17.6331 148.637 17.3931 148.947 17.1031 148.517C16.2531 147.247 15.2931 146.047 14.7731 144.597C14.3331 143.367 14.6931 142.347 15.6631 141.617C16.7331 140.807 17.8831 140.757 18.9731 141.487C19.2231 141.657 19.4631 141.837 19.7531 142.037C20.5431 140.347 21.3231 138.717 22.0931 137.067V137.057ZM17.5631 142.267C16.3731 142.267 15.5931 143.457 16.0731 144.607C16.3431 145.257 16.8131 145.817 17.1331 146.447C17.4231 147.007 17.7431 147.117 18.2231 146.677C18.3931 146.517 18.6131 146.417 18.8131 146.287C19.9597 145.54 20.1164 144.607 19.2831 143.487C18.8231 142.867 18.3031 142.367 17.5531 142.277L17.5631 142.267Z" fill="#FEFEFE"/>
<path d="M153.913 154.827C153.713 154.997 153.523 155.127 153.353 155.287C152.513 156.077 151.663 156.857 150.853 157.677C150.503 158.027 150.263 157.967 149.933 157.647C149.553 157.267 149.813 157.077 150.063 156.827C151.203 155.717 152.363 154.617 153.483 153.477C153.843 153.117 154.053 153.067 154.443 153.477C156.513 155.677 158.603 157.847 160.693 160.027C161.013 160.357 161.423 160.607 160.843 161.147C160.283 161.657 160.083 161.227 159.803 160.927C158.043 159.087 156.293 157.247 154.533 155.407C154.343 155.217 154.143 155.037 153.923 154.827H153.913Z" fill="#FEFEFE"/>
<path d="M5.44339 124.876C4.96339 124.926 5.01339 124.536 4.89339 124.276C4.67339 123.786 5.00339 123.716 5.34339 123.596C7.90339 122.736 10.4634 121.856 13.0334 120.986C13.3834 120.866 13.7334 120.736 14.0834 120.606C14.5234 120.446 14.8034 120.486 14.9934 121.026C15.1734 121.546 14.9634 121.656 14.5634 121.796C11.6134 122.786 8.66339 123.786 5.71339 124.776C5.61339 124.806 5.52339 124.836 5.44339 124.866V124.876Z" fill="#FEFEFE"/>
<path d="M182.993 125.445C182.423 125.265 181.843 125.075 181.263 124.905C178.893 124.195 176.523 123.495 174.163 122.755C173.773 122.635 173.053 122.715 173.363 121.845C173.633 121.075 174.073 121.445 174.493 121.565C175.503 121.855 176.533 122.095 177.513 122.475C178.163 122.725 178.333 122.485 178.493 121.935C178.883 120.605 179.263 119.265 179.733 117.955C179.943 117.375 179.693 117.255 179.263 117.125C178.123 116.785 177.003 116.405 175.853 116.115C175.293 115.975 175.273 115.735 175.413 115.245C175.553 114.725 175.793 114.725 176.233 114.855C179.143 115.745 182.063 116.635 184.993 117.485C185.563 117.645 185.633 117.845 185.503 118.405C185.333 119.135 184.903 118.785 184.583 118.705C183.633 118.455 182.683 118.185 181.763 117.845C181.213 117.645 180.983 117.735 180.823 118.305C180.453 119.675 180.063 121.045 179.623 122.405C179.453 122.935 179.583 123.125 180.103 123.255C181.123 123.515 182.123 123.835 183.133 124.125C183.453 124.215 183.753 124.345 183.553 124.745C183.423 125.005 183.553 125.495 183.003 125.445H182.993Z" fill="#FEFEFE"/>
<path d="M54.2532 20.4756C54.2532 16.7756 54.2532 13.1856 54.2432 9.59559C54.2432 9.13559 54.4732 8.95559 54.8132 8.76559C55.2432 8.52559 55.4932 8.72559 55.7932 8.99559C58.2532 11.2356 60.7232 13.4556 63.1832 15.6956C63.3532 15.8556 63.9032 16.0356 63.5232 16.3456C63.2232 16.5956 62.7832 17.0556 62.2832 16.6556C61.8632 16.3156 61.4632 15.9356 61.1032 15.5356C60.7132 15.1156 60.3632 14.9656 59.7932 15.2756C58.6832 15.8556 57.5432 16.3756 56.3832 16.8556C55.8032 17.0956 55.6132 17.4356 55.7032 18.0256C55.7432 18.3256 55.6932 18.6456 55.7432 18.9356C55.9032 19.8456 55.5732 20.3556 54.2732 20.4856L54.2532 20.4756ZM59.5432 14.0856C58.1432 12.7956 56.8632 11.6156 55.5532 10.4056V15.8856C56.9432 15.2556 58.1732 14.7056 59.5432 14.0856Z" fill="#FEFEFE"/>
<path d="M83.6131 11.366C82.9531 11.576 82.6631 11.276 82.5931 10.476C82.3331 7.52597 82.0231 4.58597 81.6931 1.64597C81.6231 1.06597 81.7931 0.855974 82.3531 0.805974C84.1131 0.645974 85.8731 0.465974 87.6331 0.295974C87.9831 0.255974 88.2931 0.195974 88.3131 0.745974C88.3331 1.20597 88.2431 1.43597 87.7431 1.47597C86.3931 1.60597 85.0431 1.77597 83.6831 1.89597C83.2031 1.93597 82.9931 2.04597 83.0431 2.62597C83.2931 5.22597 83.2631 5.23597 85.8531 4.97597C86.4931 4.91597 87.1431 4.86597 87.7831 4.77597C88.2431 4.70597 88.3731 4.91597 88.4331 5.32597C88.5031 5.79597 88.2831 5.93597 87.8831 5.97597C86.7331 6.07597 85.5831 6.20597 84.4331 6.27597C83.7831 6.31597 83.5031 6.49597 83.5431 7.24597C83.6931 10.176 83.6731 10.176 86.5331 9.89597C87.3131 9.81597 88.0931 9.75597 88.8631 9.65597C89.2831 9.60597 89.4831 9.68597 89.5031 10.166C89.5231 10.586 89.4631 10.826 89.0031 10.836C88.9031 10.836 88.8031 10.866 88.7031 10.876C87.0431 11.036 85.3831 11.196 83.6131 11.376V11.366Z" fill="#FEFEFE"/>
<path d="M113.033 11.1768C112.913 11.7168 113.373 11.6568 113.663 11.7368C115.013 12.0868 116.353 12.4368 117.713 12.7468C118.123 12.8368 118.413 12.8868 118.283 13.4468C118.143 14.0468 117.853 13.9768 117.393 13.8568C115.623 13.3968 113.833 12.9768 112.053 12.5568C111.553 12.4368 111.403 12.2268 111.533 11.7068C112.293 8.71684 113.043 5.71684 113.763 2.71684C113.883 2.19684 114.093 2.16684 114.543 2.28684C116.283 2.74684 118.023 3.17684 119.783 3.57684C120.283 3.68684 120.383 3.90684 120.283 4.35684C120.183 4.81684 119.943 4.83684 119.533 4.72684C118.223 4.37684 116.893 4.09684 115.583 3.72684C115.063 3.57684 114.893 3.66684 114.743 4.20684C114.023 6.74684 114.003 6.74684 116.523 7.38684C117.113 7.53684 117.703 7.71684 118.293 7.83684C118.723 7.91684 119.003 8.02684 118.843 8.55684C118.713 8.99684 118.523 9.11684 118.033 8.97684C116.893 8.64684 115.723 8.41684 114.573 8.11684C113.993 7.96684 113.693 8.09684 113.583 8.70684C113.433 9.53684 113.213 10.3668 113.033 11.1868V11.1768Z" fill="#FEFEFE"/>
<path d="M39.3634 30.9459C38.7934 31.9859 38.0734 32.0159 37.2834 31.4959C36.2734 30.8359 35.4434 30.8859 34.7134 31.9359C34.4634 32.2959 34.1234 32.6059 33.7634 32.8559C32.3534 33.8659 31.7534 35.0359 32.8234 36.6559C33.1334 37.1259 32.8234 37.4659 32.4734 37.7959C32.1834 38.0659 32.0234 38.1559 31.8534 37.6859C30.6334 34.4059 29.4034 31.1359 28.1434 27.8759C27.9734 27.4459 28.1634 27.2559 28.3934 26.9959C28.6434 26.7259 28.8834 26.5659 29.2834 26.7259C32.6234 28.1359 35.9734 29.5359 39.3534 30.9459H39.3634ZM34.4934 30.3059C32.9234 29.6359 31.3434 28.9559 29.5434 28.1759C30.2834 30.0559 30.9134 31.6659 31.5934 33.3959C32.6034 32.3159 33.5134 31.3559 34.5034 30.2959L34.4934 30.3059Z" fill="#FEFEFE"/>
<path d="M151.143 32.8461C154.773 31.5361 158.173 30.3061 161.573 29.0561C161.973 28.9061 162.193 28.9861 162.433 29.2861C162.653 29.5561 162.863 29.7661 162.683 30.1761C161.303 33.3461 159.953 36.5261 158.583 39.6961C158.513 39.8661 158.473 40.2961 158.143 40.0261C157.823 39.7661 157.373 39.5061 157.483 38.9761C157.533 38.7161 157.653 38.4461 157.803 38.2361C158.643 37.0561 158.273 36.1261 157.233 35.3161C157.023 35.1461 156.813 34.9561 156.663 34.7361C155.623 33.2561 154.443 32.4861 152.653 33.6661C151.933 34.1461 151.753 33.2261 151.153 32.8361L151.143 32.8461ZM161.303 30.4061C159.383 31.1361 157.753 31.7561 156.013 32.4061C157.053 33.5061 157.983 34.4761 158.973 35.5161C159.743 33.8261 160.453 32.2661 161.303 30.3961V30.4061Z" fill="#FEFEFE"/>
<path d="M183.183 88.7057C184.683 88.7057 186.173 88.7357 187.673 88.6957C188.213 88.6857 188.393 88.8657 188.403 89.3857C188.423 91.1557 188.463 92.9257 188.533 94.6957C188.553 95.1357 188.433 95.2857 187.983 95.3057C187.463 95.3357 187.343 95.1257 187.343 94.6557C187.343 93.3257 187.273 92.0057 187.283 90.6757C187.283 90.0957 187.113 89.9357 186.533 89.9357C183.973 89.9157 183.973 89.8957 184.033 92.4457C184.053 93.1257 184.063 93.8057 184.113 94.4857C184.143 94.9357 183.953 95.0557 183.523 95.0757C183.063 95.0957 182.943 94.9157 182.933 94.4957C182.913 93.2757 182.833 92.0457 182.833 90.8257C182.833 90.1857 182.603 89.9957 181.993 90.0657C181.323 90.1357 180.633 90.1657 179.953 90.1257C179.213 90.0857 179.053 90.3857 179.093 91.0757C179.163 92.3657 179.163 93.6557 179.153 94.9557C179.153 95.2957 179.423 95.8057 178.703 95.8657C177.943 95.9257 177.993 95.4457 177.983 94.9557C177.943 93.1857 177.933 91.4157 177.853 89.6457C177.823 89.0357 178.043 88.8957 178.603 88.9057C180.133 88.9357 181.663 88.9057 183.193 88.9057C183.193 88.8357 183.193 88.7657 183.193 88.7057H183.183Z" fill="#FEFEFE"/>
<path d="M25.8733 159.385C25.7333 159.185 25.6333 159.005 25.5033 158.855C24.3633 157.555 23.2233 156.255 22.0633 154.955C21.7733 154.635 21.5333 154.385 22.0033 153.965C22.5333 153.495 22.7033 153.955 22.9533 154.225C23.7733 155.125 24.6133 156.025 25.3933 156.965C25.8233 157.485 26.0933 157.595 26.6633 157.085C28.5033 155.425 28.5233 155.455 26.8633 153.595C26.4333 153.115 26.0233 152.615 25.5733 152.155C25.2533 151.825 25.1933 151.615 25.5733 151.275C25.9833 150.905 26.1933 151.105 26.4733 151.425C27.2733 152.355 28.1133 153.245 28.8933 154.185C29.2433 154.605 29.4933 154.625 29.8433 154.245C30.0733 153.995 30.3333 153.775 30.5833 153.545C31.6033 152.619 31.6433 151.629 30.7033 150.575C30.0733 149.865 29.4733 149.125 28.8033 148.445C28.4433 148.085 28.5133 147.885 28.8333 147.545C29.2333 147.135 29.4333 147.345 29.7133 147.665C30.9333 149.075 32.1633 150.485 33.4233 151.865C33.7633 152.235 33.7233 152.445 33.3633 152.765C31.0233 154.835 28.6933 156.925 26.3633 159.005C26.2433 159.115 26.1033 159.205 25.8633 159.385H25.8733Z" fill="#FEFEFE"/>
<path d="M73.1934 178.436C73.2334 177.016 72.5434 176.066 71.2234 175.746C69.8734 175.416 68.8433 175.866 68.2033 177.166C67.4233 178.756 67.1634 180.526 66.6234 182.206C66.4534 182.726 66.3234 183.246 66.1934 183.776C66.0934 184.166 65.9533 184.386 65.4933 184.186C65.1733 184.046 64.8134 184.006 64.9734 183.516C65.6834 181.256 66.0234 178.876 67.0134 176.706C67.9334 174.686 69.7334 174.006 71.9434 174.746C73.9234 175.406 74.8934 177.006 74.4034 179.146C73.9134 181.326 73.2433 183.466 72.6733 185.626C72.5433 186.116 72.3133 186.146 71.8633 186.006C71.3833 185.866 71.2933 185.696 71.4333 185.216C71.9233 183.626 72.3633 182.026 72.8433 180.436C73.0333 179.786 73.1933 179.126 73.2033 178.436H73.1934Z" fill="#FEFEFE"/>
<path d="M19.2833 132.176C19.2633 132.306 19.2833 132.596 19.1833 132.836C19.0733 133.096 19.0733 133.637 18.5533 133.387C18.1833 133.207 17.5733 133.176 17.8433 132.426C18.2533 131.286 17.9133 130.286 17.0433 129.476C16.5033 128.986 15.8733 128.807 15.1633 129.107C14.4033 129.427 14.1133 130.047 14.1533 130.827C14.2033 131.677 14.3333 132.517 14.4033 133.357C14.5633 135.437 12.5433 136.936 10.5833 136.196C8.9333 135.576 7.7533 133.317 8.1833 131.607C8.2533 131.337 8.2333 130.887 8.7133 131.127C9.0333 131.287 9.7233 131.187 9.4633 131.917C9.1133 132.877 9.5333 133.647 10.0933 134.347C10.5933 134.977 11.2333 135.266 12.0733 134.926C12.8733 134.606 13.0933 133.967 13.0633 133.217C13.0333 132.437 12.8933 131.667 12.8433 130.887C12.7433 129.297 13.2433 128.477 14.5833 127.897C15.8633 127.347 16.9433 127.606 17.9833 128.696C18.8333 129.596 19.2833 130.747 19.2833 132.167V132.176Z" fill="#FEFEFE"/>
<path d="M176.853 106.505C176.873 104.175 178.293 102.095 180.363 101.385C182.603 100.615 185.333 101.325 186.783 103.055C188.193 104.745 188.363 107.365 187.173 109.355C186.983 109.665 186.733 109.975 186.453 110.195C186.243 110.355 185.973 110.865 185.653 110.365C185.433 110.025 184.953 109.655 185.553 109.165C187.433 107.625 186.853 105.085 185.763 103.875C184.263 102.205 181.433 101.955 179.633 103.295C177.933 104.565 177.503 106.695 178.703 108.535C179.103 109.145 178.923 109.455 178.463 109.755C177.943 110.095 177.853 109.505 177.683 109.265C177.073 108.455 176.823 107.505 176.853 106.495V106.505Z" fill="#FEFEFE"/>
<path d="M37.4532 169.566C36.4132 169.136 36.3032 168.566 36.6832 167.616C37.5732 165.416 38.3132 163.156 39.1132 160.916C39.1932 160.696 39.3132 160.496 39.2132 160.186C38.0832 160.606 37.1132 161.276 36.0832 161.826C34.6432 162.596 33.2232 163.386 31.8032 164.196C31.3832 164.436 31.0932 164.406 30.7332 164.076C30.3332 163.716 30.3532 163.546 30.8232 163.286C33.7532 161.706 36.6732 160.116 39.5932 158.516C39.9532 158.316 40.2632 158.216 40.5832 158.566C40.8032 158.806 41.1232 158.936 40.9632 159.396C39.7732 162.776 38.6032 166.166 37.4332 169.566H37.4532Z" fill="#FEFEFE"/>
<path d="M7.42337 58.276C7.81337 58.436 8.38337 58.406 8.05337 59.176C7.56337 60.326 7.21337 61.536 6.71337 62.686C6.41337 63.376 6.59337 63.656 7.26337 63.836C8.07337 64.046 8.94337 64.876 9.60337 64.506C10.1534 64.196 10.2734 63.106 10.5634 62.346C10.7734 61.806 10.9734 61.266 11.1534 60.726C11.2934 60.306 11.4634 60.116 11.9534 60.316C12.4234 60.506 12.4734 60.726 12.3034 61.156C11.8734 62.226 11.5134 63.326 11.0634 64.376C10.8134 64.966 10.8834 65.266 11.5434 65.466C12.5734 65.776 13.5834 66.196 14.6034 66.546C15.0034 66.686 15.2334 66.836 15.0434 67.346C14.8534 67.856 14.6434 67.916 14.1434 67.726C11.2534 66.646 8.36337 65.596 5.46337 64.546C5.04337 64.396 4.87337 64.246 5.07337 63.746C5.73337 62.076 6.33337 60.386 6.95337 58.696C7.03337 58.476 7.07337 58.216 7.42337 58.266V58.276Z" fill="#FEFEFE"/>
<path d="M0.643287 105.016C0.293287 103.966 0.463287 103.326 1.36329 102.776C2.57329 102.036 3.68329 101.136 4.96329 100.206C3.53329 99.4159 2.23329 98.6159 0.873287 97.9559C0.0332875 97.5459 -0.116713 96.9759 0.0732874 96.0859C1.77329 97.0359 3.45329 97.9259 5.07329 98.8959C5.87329 99.3759 6.64329 99.5859 7.57329 99.4359C8.37329 99.3059 9.20329 99.3359 10.0133 99.2559C10.4233 99.2159 10.7333 99.1659 10.7733 99.7459C10.8033 100.256 10.7033 100.586 10.1533 100.506C6.74329 100.016 4.41329 102.046 2.03329 103.966C1.59329 104.316 1.13329 104.646 0.643287 105.016Z" fill="#FEFEFE"/>
<path d="M123.123 184.075C122.103 184.695 121.423 184.505 120.753 183.755C120.003 182.925 119.113 182.225 118.333 181.425C117.803 180.895 117.523 180.825 117.303 181.665C117.003 182.775 116.583 183.855 116.283 184.965C116.043 185.855 115.723 186.575 114.533 186.385C114.653 185.425 115.153 184.495 115.403 183.505C115.433 183.405 115.453 183.305 115.503 183.215C116.673 180.915 116.763 178.575 115.753 176.195C115.593 175.805 115.373 175.385 116.063 175.165C116.843 174.915 116.873 175.475 116.923 175.905C117.213 178.505 118.563 180.395 120.653 181.885C121.523 182.505 122.273 183.295 123.133 184.065L123.123 184.075Z" fill="#FEFEFE"/>
<path d="M143.334 15.6364C143.434 15.2264 143.144 15.1664 142.964 15.0464C142.344 14.6364 141.724 14.2164 141.074 13.8464C140.594 13.5664 140.744 13.2964 140.944 12.9364C141.174 12.5164 141.404 12.5764 141.754 12.8064C143.684 14.0664 145.634 15.3164 147.584 16.5564C147.944 16.7864 148.134 16.9764 147.854 17.4364C147.574 17.8964 147.324 17.8364 146.964 17.5764C146.574 17.2964 146.164 17.0664 145.754 16.8164C144.98 16.3231 144.343 16.4764 143.843 17.2764C142.583 19.2564 141.324 21.2264 140.054 23.2064C139.804 23.6064 139.643 24.0664 138.983 23.6264C138.343 23.2064 138.754 22.9064 138.974 22.5664C140.314 20.4364 141.664 18.3164 143.004 16.1964C143.134 15.9964 143.253 15.7964 143.343 15.6564L143.334 15.6364Z" fill="#FEFEFE"/>
<path d="M185.793 77.2561C185.683 76.5661 185.573 75.8261 185.443 75.0961C185.363 74.6561 185.443 74.4261 185.953 74.3161C186.513 74.1961 186.513 74.5661 186.563 74.8761C186.983 77.2161 187.373 79.5561 187.803 81.8861C187.883 82.3461 187.673 82.3861 187.343 82.4661C186.973 82.5561 186.693 82.6161 186.623 82.0861C186.523 81.3461 186.333 80.6161 186.243 79.8761C186.163 79.2761 185.973 79.1161 185.323 79.2361C182.723 79.7261 180.103 80.1061 177.503 80.6061C176.893 80.7261 176.823 80.4861 176.723 80.0361C176.593 79.4961 176.903 79.4061 177.323 79.3361C179.863 78.9161 182.413 78.4861 184.943 78.0261C185.313 77.9561 186.033 78.1161 185.803 77.2361L185.793 77.2561Z" fill="#FEFEFE"/>
<path d="M12.4534 112.006C12.5134 112.576 12.0234 112.436 11.7534 112.496C9.37338 113.036 6.97338 113.536 4.58338 114.046C3.32338 114.316 3.32338 114.306 3.61338 115.596C3.72338 116.096 3.79338 116.606 3.94338 117.086C4.09338 117.576 3.89338 117.716 3.45338 117.856C2.87338 118.036 2.82338 117.676 2.74338 117.306C2.27338 115.016 1.80338 112.716 1.32338 110.426C1.23338 109.986 1.34338 109.816 1.79338 109.736C2.22338 109.666 2.41338 109.756 2.49338 110.206C2.60338 110.906 2.79338 111.596 2.91338 112.306C3.01338 112.886 3.20338 113.086 3.85338 112.926C6.39338 112.326 8.96338 111.826 11.5134 111.236C12.2634 111.066 12.3934 111.426 12.4534 111.996V112.006Z" fill="#FEFEFE"/>
<path d="M43.0835 173.467C42.8135 173.177 42.0235 173.217 42.5535 172.407C44.2735 169.807 45.9535 167.177 47.6235 164.547C47.8435 164.197 48.0435 164.027 48.4035 164.357C48.6535 164.587 49.0635 164.717 48.7235 165.227C46.9835 167.857 45.2735 170.507 43.5535 173.147C43.4535 173.307 43.3735 173.527 43.0835 173.457V173.467Z" fill="#FEFEFE"/>
<path d="M170.843 119.495C170.903 119.385 170.983 119.365 171.083 119.445C171.033 119.485 170.993 119.525 170.943 119.555C170.913 119.535 170.883 119.505 170.853 119.485L170.843 119.495Z" fill="#294B8A"/>
<path d="M17.5532 69.0762C17.5532 69.0762 17.5532 69.0862 17.5632 69.0962L17.5532 69.0762Z" fill="#294B8A"/>
<path d="M128.493 94.6652C128.493 99.0552 128.473 103.435 128.513 107.825C128.513 108.625 128.303 108.855 127.493 108.835C124.873 108.785 122.253 108.775 119.643 108.835C118.803 108.855 118.643 108.575 118.643 107.805C118.673 98.9652 118.673 90.1252 118.643 81.2852C118.643 80.5052 118.853 80.3252 119.603 80.3452C122.283 80.3952 124.973 80.3852 127.663 80.3452C128.343 80.3452 128.513 80.5452 128.503 81.2052C128.473 85.6952 128.493 90.1752 128.493 94.6652Z" fill="#FCFDFD"/>
<path d="M66.0635 94.5567C66.0635 90.1767 66.0835 85.7867 66.0435 81.4067C66.0435 80.5467 66.2935 80.3367 67.1235 80.3567C69.8435 80.4067 72.5635 80.3967 75.2835 80.3567C75.9235 80.3567 76.1635 80.4867 76.1635 81.1867C76.1335 87.6767 76.1835 94.1667 76.1435 100.667C76.1235 104.607 73.2835 107.757 69.1835 108.537C68.4535 108.677 67.7035 108.687 66.9635 108.807C66.2335 108.917 66.0435 108.637 66.0535 107.927C66.0935 105.687 66.0635 103.437 66.0635 101.197C66.0635 98.9867 66.0635 96.7767 66.0635 94.5667V94.5567Z" fill="#FCFDFD"/>
<path d="M63.1633 94.5761C63.1633 98.9661 63.1333 103.346 63.1833 107.736C63.1933 108.696 62.8933 108.856 62.0233 108.786C58.8933 108.546 56.1733 107.576 54.3833 104.806C53.5733 103.556 53.1333 102.176 53.1333 100.676C53.1333 94.2161 53.1433 87.7561 53.1133 81.2961C53.1133 80.5161 53.3333 80.3361 54.0733 80.3461C56.8233 80.3861 59.5833 80.3861 62.3333 80.3461C63.0333 80.3361 63.1633 80.5761 63.1633 81.2161C63.1433 85.6661 63.1533 90.1261 63.1533 94.5761H63.1633Z" fill="#FCFDFD"/>
<path d="M94.1533 108.816C92.8933 108.816 91.6333 108.776 90.3733 108.836C89.6733 108.866 89.3833 108.656 89.2033 107.946C87.3433 100.676 85.5033 93.4063 83.5033 86.1763C82.9933 84.3363 83.0633 82.6863 83.6633 80.9363C83.8433 80.3963 84.1133 80.3663 84.5333 80.3763C86.6133 80.3763 88.6833 80.4163 90.7633 80.3663C91.4233 80.3463 91.6033 80.6063 91.7633 81.1963C93.7733 89.0163 95.8133 96.8363 97.8433 104.656C98.1433 105.806 98.3933 106.966 98.7433 108.106C98.9533 108.776 98.6933 108.856 98.1333 108.846C96.8033 108.826 95.4833 108.846 94.1533 108.846V108.816Z" fill="#FCFDFD"/>
<path d="M106.604 108.816C105.314 108.816 104.024 108.786 102.734 108.826C102.154 108.846 101.894 108.636 101.744 108.076C99.6935 100.136 97.6135 92.1957 95.5835 84.2457C95.2535 82.9457 96.0735 81.7657 96.3235 80.5257C96.3635 80.3257 96.6735 80.3657 96.8735 80.3657C99.0435 80.3657 101.224 80.3857 103.394 80.3557C104.024 80.3457 104.074 80.7157 104.194 81.1657C106.084 88.4157 107.994 95.6557 109.894 102.906C110.324 104.546 110.684 106.206 111.194 107.816C111.474 108.726 111.183 108.856 110.383 108.826C109.123 108.776 107.874 108.816 106.614 108.816H106.604Z" fill="#FCFDFD"/>
<path d="M81.6433 89.1367C82.9633 94.2667 84.2833 99.3767 85.6033 104.487C85.9033 105.637 86.1633 106.797 86.5133 107.927C86.7133 108.587 86.6533 108.847 85.8833 108.837C82.9233 108.807 79.9633 108.807 77.0033 108.837C76.2633 108.837 76.1833 108.647 76.3733 107.957C78.0533 101.877 79.6833 95.7767 81.3233 89.6867C81.3733 89.4867 81.3933 89.2867 81.6533 89.1367H81.6433Z" fill="#FCFDFD"/>
<path d="M111.713 91.7254C111.713 88.1654 111.713 84.6054 111.713 81.0454C111.713 80.7154 111.643 80.3554 112.193 80.3654C113.743 80.3854 115.293 80.3654 116.983 80.3654C115.253 84.2554 113.583 88.0154 111.903 91.7754C111.843 91.7554 111.773 91.7454 111.713 91.7254Z" fill="#FCFDFD"/>
<path d="M130.183 80.3654C131.863 80.3654 133.353 80.3654 134.843 80.3654C135.153 80.3654 135.463 80.3454 135.453 80.8154C135.453 84.4254 135.453 88.0454 135.233 91.7054C133.573 87.9854 131.913 84.2754 130.173 80.3654H130.183Z" fill="#FCFDFD"/>
</svg>
